<svg width="1920" height="754" xmlns="http://www.w3.org/2000/svg"><defs><linearGradient x1="125.468%" y1="51.206%" x2="19.632%" y2="164.113%" id="a"><stop stop-color="#EEE" stop-opacity="0" offset="0%"/><stop stop-color="#D8D8D8" offset="45.188%"/><stop stop-color="#D8D8D8" stop-opacity="0" offset="100%"/><stop stop-color="#D8D8D8" stop-opacity="0" offset="100%"/></linearGradient><linearGradient x1="50%" y1="-33.314%" x2="50%" y2="100%" id="ap"><stop stop-color="#0F1E65" offset="0%"/><stop stop-color="#29BACF" offset="100%"/></linearGradient><linearGradient x1="0%" y1="100%" x2="54.586%" y2="-8.37%" id="f"><stop stop-color="#23E4C1" stop-opacity="0" offset="0%"/><stop stop-color="#1BD1CA" offset="41.015%"/><stop stop-color="#08A9DE" offset="68.146%"/><stop stop-color="#0097E7" stop-opacity="0" offset="100%"/></linearGradient><linearGradient x1="97.782%" y1="121.164%" x2="97.782%" y2="-13.898%" id="g"><stop stop-color="#23E4C1" offset="0%"/><stop stop-color="#0097E7" stop-opacity="0" offset="100%"/></linearGradient><linearGradient x1="51.731%" y1="94.095%" x2="51.731%" y2="-14.082%" id="h"><stop stop-color="#23E4C1" offset="0%"/><stop stop-color="#0097E7" offset="100%"/></linearGradient><linearGradient x1="131.666%" y1="60.146%" x2="0%" y2="60.146%" id="i"><stop stop-color="#FFF" offset="0%"/><stop stop-color="#6DB9FF" offset="100%"/></linearGradient><linearGradient x1="83.133%" y1="70.179%" x2="-19.517%" y2="-3.764%" id="j"><stop stop-color="#FFF" offset="0%"/><stop stop-color="#6DB9FF" offset="100%"/></linearGradient><linearGradient x1="87.22%" y1="0%" x2="-22.323%" y2="121.896%" id="k"><stop stop-color="#07D990" offset="0%"/><stop stop-color="#00F3EC" offset="100%"/></linearGradient><linearGradient x1="32.218%" y1="64.555%" x2="-14.153%" y2="73.413%" id="l"><stop stop-color="#FFF" offset="0%"/><stop stop-color="#D8D8D8" offset="100%"/></linearGradient><linearGradient x1="50%" y1="85.838%" x2="50%" y2="36.078%" id="m"><stop stop-color="#07D990" offset="0%"/><stop stop-color="#00F3EC" offset="100%"/></linearGradient><linearGradient x1="58.191%" y1="94.507%" x2="0%" y2="50%" id="n"><stop stop-color="#A7EEFF" offset="0%"/><stop stop-color="#BEE0FF" offset="100%"/></linearGradient><linearGradient x1="50%" y1="12.549%" x2="50%" y2="74.565%" id="o"><stop stop-color="#07D990" offset="0%"/><stop stop-color="#00F3EC" offset="100%"/></linearGradient><linearGradient x1="50%" y1="95.106%" x2="50%" y2="9.992%" id="p"><stop stop-color="#FFF" offset="0%"/><stop stop-color="#B4DCE7" offset="100%"/></linearGradient><linearGradient x1="50%" y1="14.581%" x2="50%" y2="100%" id="r"><stop stop-color="#06DB9A" offset="0%"/><stop stop-color="#BEE0FF" offset="100%"/></linearGradient><linearGradient x1="50%" y1="100%" x2="58.948%" y2="50%" id="q"><stop stop-color="#00FFD9" offset="0%"/><stop stop-color="#3C9A9E" stop-opacity="0" offset="100%"/></linearGradient><linearGradient x1="113.059%" y1="6.762%" x2="-114.141%" y2="76.871%" id="s"><stop stop-color="#FFF" offset="0%"/><stop stop-color="#D8D8D8" offset="100%"/></linearGradient><linearGradient x1="37.722%" y1="33.64%" x2="50%" y2="83.311%" id="t"><stop stop-color="#FFF" offset="0%"/><stop stop-color="#97CDFF" offset="100%"/></linearGradient><linearGradient x1="-12.173%" y1="40.054%" x2="50%" y2="16.299%" id="u"><stop stop-color="#132B9A" stop-opacity="0" offset="0%"/><stop offset="100%"/></linearGradient><linearGradient x1="32.218%" y1="64.555%" x2="115.453%" y2="50%" id="v"><stop stop-color="#FFF" offset="0%"/><stop stop-color="#D8D8D8" offset="100%"/></linearGradient><linearGradient x1="59.435%" y1="0%" x2="82.234%" y2="34.804%" id="w"><stop stop-color="#FFF" offset="0%"/><stop stop-color="#D8D8D8" offset="100%"/></linearGradient><linearGradient x1="18.93%" y1="0%" x2="50%" y2="100%" id="x"><stop stop-color="#FFF" offset="0%"/><stop stop-color="#D8D8D8" offset="100%"/></linearGradient><linearGradient x1="50%" y1="69.906%" x2="92.547%" y2="9.122%" id="z"><stop stop-color="#0085FF" offset="0%"/><stop stop-color="#75BDFF" offset="100%"/><stop stop-color="#75BDFF" offset="100%"/></linearGradient><linearGradient x1="105.229%" y1="53.807%" x2="52.971%" y2="50%" id="A"><stop stop-opacity="0" offset="0%"/><stop offset="100%"/></linearGradient><linearGradient x1="86.782%" y1="19.041%" x2="47.663%" y2="27.89%" id="B"><stop stop-color="#0085FF" offset="0%"/><stop stop-color="#75BDFF" offset="100%"/><stop stop-color="#75BDFF" offset="100%"/></linearGradient><linearGradient x1="91.392%" y1="13.424%" x2="-22.937%" y2="87.227%" id="C"><stop stop-color="#0049DE" offset="0%"/><stop stop-color="#75BDFF" offset="100%"/><stop stop-color="#75BDFF" offset="100%"/></linearGradient><linearGradient x1="23.761%" y1="104.927%" x2="97.183%" y2="45.242%" id="D"><stop stop-opacity="0" offset="0%"/><stop offset="100%"/></linearGradient><linearGradient x1="62.335%" y1="37.686%" x2="-22.937%" y2="87.227%" id="E"><stop stop-color="#0085FF" offset="0%"/><stop stop-color="#75BDFF" offset="100%"/><stop stop-color="#98B5CF" offset="100%"/></linearGradient><linearGradient x1="4.052%" y1="134.223%" x2="100%" y2="13.404%" id="F"><stop stop-opacity="0" offset="0%"/><stop offset="100%"/></linearGradient><linearGradient x1="-18.876%" y1="-26.986%" x2="51.178%" y2="134.191%" id="G"><stop stop-color="#D7E5FF" offset="0%"/><stop stop-color="#FFD943" stop-opacity="0" offset="100%"/></linearGradient><linearGradient x1="0%" y1="15.677%" x2="51.178%" y2="134.191%" id="H"><stop stop-color="#6388FF" offset="0%"/><stop stop-color="#FFD943" stop-opacity="0" offset="100%"/></linearGradient><linearGradient x1="50%" y1="100%" x2="66.357%" y2="14.13%" id="J"><stop stop-color="#00FFD1" offset="0%"/><stop stop-color="#14D5D9" offset="100%"/></linearGradient><linearGradient x1="75.484%" y1="81.185%" x2="-2.551%" y2="4.896%" id="K"><stop stop-color="#23E4C1" offset="0%"/><stop stop-color="#00E3C3" stop-opacity="0" offset="100%"/></linearGradient><linearGradient x1="51.731%" y1="94.095%" x2="9.243%" y2="62.005%" id="L"><stop stop-color="#23E4C1" offset="0%"/><stop stop-color="#0097E7" offset="100%"/></linearGradient><linearGradient x1="70.548%" y1="95.574%" x2="39.487%" y2="18.324%" id="M"><stop stop-color="#0032E5" offset="0%"/><stop stop-color="#0085FF" offset="100%"/></linearGradient><linearGradient x1="82.924%" y1="79.917%" x2="16.346%" y2="8.789%" id="N"><stop stop-color="#8098FF" offset="0%"/><stop stop-color="#509BFF" offset="44.078%"/><stop stop-color="#0A1351" offset="100%"/></linearGradient><linearGradient x1="77.588%" y1="72.591%" x2="15.892%" y2="5.444%" id="O"><stop stop-color="#8098FF" offset="0%"/><stop stop-color="#509BFF" offset="44.078%"/><stop stop-color="#0A1351" offset="100%"/></linearGradient><linearGradient x1="100%" y1="110.009%" x2="-30.729%" y2="55.478%" id="P"><stop stop-color="#3A4DAC" offset="0%"/><stop stop-color="#0A1351" offset="100%"/></linearGradient><linearGradient x1="97.586%" y1="100%" x2="3.735%" y2="-17.137%" id="Q"><stop stop-color="#12BD9C" offset="0%"/><stop stop-color="#227BC8" offset="100%"/></linearGradient><linearGradient x1="3.735%" y1="-17.137%" x2="97.586%" y2="100%" id="R"><stop stop-color="#12BD9C" offset="0%"/><stop stop-color="#227BC8" offset="100%"/></linearGradient><linearGradient x1="7.798%" y1="25.128%" x2="100%" y2="100%" id="S"><stop stop-color="#FE68B1" offset="0%"/><stop stop-color="#FACC5C" offset="100%"/></linearGradient><linearGradient x1="104.893%" y1="19.888%" x2="0%" y2="83.855%" id="T"><stop stop-color="#8BE0FF" offset="0%"/><stop stop-color="#0085FF" offset="100%"/></linearGradient><linearGradient x1="100%" y1="110.009%" x2="125.805%" y2="13.859%" id="U"><stop stop-color="#3A4DAC" offset="0%"/><stop stop-color="#0A1351" offset="100%"/></linearGradient><linearGradient x1="82.924%" y1="79.917%" x2="82.924%" y2="6.077%" id="V"><stop stop-color="#8098FF" offset="0%"/><stop stop-color="#253384" offset="100%"/></linearGradient><linearGradient x1="0%" y1="26.853%" x2="40.106%" y2="100%" id="W"><stop stop-color="#D7E5FF" offset="0%"/><stop stop-color="#FFF5C7" stop-opacity="0" offset="100%"/></linearGradient><linearGradient x1="100%" y1="110.009%" x2="100%" y2="-25.9%" id="X"><stop stop-color="#3A4DAC" offset="0%"/><stop stop-color="#0A1351" offset="100%"/></linearGradient><linearGradient x1="0%" y1="0%" x2="100%" y2="100%" id="Y"><stop stop-color="#D6E0FF" offset="0%"/><stop stop-color="#8CA7F5" offset="100%"/></linearGradient><linearGradient x1="0%" y1="100%" x2="97.782%" y2="4.74%" id="c"><stop stop-color="#23E4C1" offset="0%"/><stop stop-color="#0097E7" offset="100%"/></linearGradient><linearGradient x1="-43.623%" y1="50%" x2="113.481%" y2="30.843%" id="aa"><stop stop-color="#23E4C1" offset="0%"/><stop stop-color="#00E3C3" stop-opacity="0" offset="100%"/></linearGradient><linearGradient x1="15.73%" y1="100%" x2="108.807%" y2="-10.019%" id="ab"><stop stop-color="#1376FB" offset="0%"/><stop stop-color="#00EBFE" offset="52.701%"/><stop stop-color="#09ABFE" offset="100%"/></linearGradient><linearGradient x1="50%" y1="0%" x2="50%" y2="100%" id="ac"><stop stop-color="#FE68B1" offset="0%"/><stop stop-color="#FACC5C" offset="100%"/></linearGradient><linearGradient x1="-16.238%" y1="100%" x2="93.181%" y2="0%" id="ad"><stop stop-color="#23E4C1" offset="0%"/><stop stop-color="#00E3C3" stop-opacity="0" offset="100%"/></linearGradient><linearGradient x1="91.392%" y1="13.424%" x2="16.418%" y2="79.656%" id="ae"><stop stop-color="#0049DE" offset="0%"/><stop stop-color="#75BDFF" offset="100%"/><stop stop-color="#75BDFF" offset="100%"/></linearGradient><linearGradient x1="88.268%" y1="4.887%" x2="88.268%" y2="83.086%" id="af"><stop stop-color="#FFF" offset="0%"/><stop stop-color="#D8D8D8" offset="100%"/></linearGradient><linearGradient x1="94.895%" y1="0%" x2="94.895%" y2="84.115%" id="ag"><stop stop-opacity="0" offset="0%"/><stop offset="100%"/></linearGradient><linearGradient x1="35.107%" y1="15.073%" x2="81.002%" y2="90.613%" id="ah"><stop stop-color="#A7EEFF" offset="0%"/><stop stop-color="#4084C3" offset="100%"/></linearGradient><linearGradient x1="20.672%" y1="66.486%" x2="144.823%" y2="46.435%" id="ai"><stop stop-color="#FFF" offset="0%"/><stop stop-color="#D8D8D8" offset="100%"/></linearGradient><linearGradient x1="50%" y1="100%" x2="50%" y2="10.171%" id="aj"><stop stop-color="#102C84" offset="0%"/><stop offset="100%"/></linearGradient><linearGradient x1="90.763%" y1="87.349%" x2="-72.545%" y2="-44.826%" id="ak"><stop stop-color="#0049DE" offset="0%"/><stop stop-color="#75BDFF" offset="100%"/><stop stop-color="#75BDFF" offset="100%"/></linearGradient><linearGradient x1="70.832%" y1="104.213%" x2="70.832%" y2="12.012%" id="al"><stop stop-opacity="0" offset="0%"/><stop offset="100%"/></linearGradient><linearGradient x1="87.526%" y1="-42.156%" x2="-16.234%" y2="58.9%" id="b"><stop stop-color="#EEE" stop-opacity="0" offset="0%"/><stop stop-color="#D8D8D8" offset="45.136%"/><stop stop-color="#D8D8D8" stop-opacity="0" offset="100%"/></linearGradient><linearGradient x1="16.456%" y1="87.305%" x2="16.456%" y2="4.414%" id="am"><stop stop-opacity="0" offset="0%"/><stop offset="100%"/></linearGradient><linearGradient x1="91.392%" y1="13.424%" x2="-41.348%" y2="164.939%" id="an"><stop stop-color="#0049DE" offset="0%"/><stop stop-color="#75BDFF" offset="100%"/><stop stop-color="#75BDFF" offset="100%"/></linearGradient><linearGradient x1="284.144%" y1="258.661%" x2="14.443%" y2="28.578%" id="ao"><stop stop-color="#0049DE" offset="0%"/><stop stop-color="#75BDFF" offset="100%"/><stop stop-color="#75BDFF" offset="100%"/></linearGradient><linearGradient x1="96.814%" y1="25.154%" x2="0%" y2="86.477%" id="Z"><stop stop-color="#8C9FFF" offset="0%"/><stop stop-color="#86E4FF" offset="100%"/></linearGradient><linearGradient x1="50%" y1="0%" x2="50%" y2="100%" id="ar"><stop stop-color="#EEE" offset="0%"/><stop stop-color="#D8D8D8" offset="100%"/></linearGradient><linearGradient x1="50%" y1="97.701%" x2="57.617%" y2="16.711%" id="as"><stop stop-color="#0085FF" offset="0%"/><stop stop-color="#0085FF" stop-opacity="0" offset="100%"/></linearGradient><linearGradient x1="40.201%" y1="80.075%" x2="40.201%" y2="1.735%" id="at"><stop stop-color="#0085FF" offset="0%"/><stop stop-color="#0085FF" stop-opacity="0" offset="100%"/></linearGradient><linearGradient x1="100%" y1="0%" x2="416.333%" y2="100%" id="av"><stop stop-color="#4AA8FF" offset="0%"/><stop stop-color="#0085FF" stop-opacity="0" offset="100%"/></linearGradient><linearGradient x1="3.541%" y1="36.835%" x2="94.895%" y2="84.115%" id="aw"><stop stop-opacity="0" offset="0%"/><stop offset="100%"/></linearGradient><linearGradient x1="25.345%" y1="72.835%" x2="25.345%" y2="14.691%" id="ax"><stop stop-color="#0C1A81" offset="0%"/><stop offset="100%"/></linearGradient><linearGradient x1="41.151%" y1="85.006%" x2="50%" y2="19.037%" id="ay"><stop stop-color="#0B236A" offset="0%"/><stop stop-color="#030024" offset="100%"/></linearGradient><linearGradient x1="50%" y1="0%" x2="50%" y2="100%" id="az"><stop stop-color="#337BCF" offset="0%"/><stop stop-color="#8CB4DF" offset="100%"/></linearGradient><linearGradient x1="35.794%" y1="66.648%" x2="32.761%" y2="-8.144%" id="aA"><stop stop-color="#0049DE" offset="0%"/><stop stop-color="#75BDFF" offset="100%"/><stop stop-color="#75BDFF" offset="100%"/></linearGradient><linearGradient x1="35.729%" y1="81.284%" x2="35.729%" y2="6.404%" id="aB"><stop stop-color="#0049DE" offset="0%"/><stop stop-color="#75BDFF" offset="100%"/><stop stop-color="#75BDFF" offset="100%"/></linearGradient><linearGradient x1="109.656%" y1="-11.631%" x2="16.161%" y2="92.314%" id="aC"><stop stop-color="#0074FF" offset="0%"/><stop stop-color="#15278B" offset="100%"/></linearGradient><linearGradient x1="63.39%" y1="77.064%" x2="27.589%" y2="-2.548%" id="aD"><stop stop-color="#001D41" offset="0%"/><stop stop-color="#00189D" offset="100%"/></linearGradient><linearGradient x1="7.63%" y1="228.18%" x2="7.63%" y2="20.108%" id="aE"><stop stop-color="#FFF" offset="0%"/><stop stop-color="#6DB9FF" offset="100%"/></linearGradient><linearGradient x1="74.001%" y1="70.982%" x2="13.138%" y2="0%" id="aF"><stop stop-color="#FFF" offset="0%"/><stop stop-color="#6DB9FF" offset="100%"/></linearGradient><linearGradient x1="18.034%" y1="24.577%" x2="91.035%" y2="91.272%" id="aG"><stop stop-color="#0B236A" offset="0%"/><stop stop-color="#0F00CA" offset="100%"/></linearGradient><linearGradient x1="50%" y1="0%" x2="50%" y2="100%" id="aH"><stop stop-opacity="0" offset="0%"/><stop offset="100%"/></linearGradient><linearGradient x1="84.215%" y1="82.393%" x2="0%" y2="-3.951%" id="aI"><stop stop-color="#FFF" offset="0%"/><stop stop-color="#6DB9FF" offset="100%"/></linearGradient><linearGradient x1="60.518%" y1="63.066%" x2="50%" y2="36.179%" id="aJ"><stop stop-color="#0F00CA" stop-opacity="0" offset="0%"/><stop stop-color="#0F00CA" offset="100%"/></linearGradient><linearGradient x1="55.149%" y1="52.848%" x2="50%" y2="40.199%" id="aK"><stop stop-color="#0F00CA" stop-opacity="0" offset="0%"/><stop stop-color="#0F00CA" offset="100%"/></linearGradient><linearGradient x1="20.204%" y1="22.841%" x2="44.608%" y2="60.023%" id="aN"><stop stop-color="#00FFE5" offset="0%"/><stop stop-color="#00FFC6" stop-opacity="0" offset="100%"/></linearGradient><linearGradient x1="90.763%" y1="87.349%" x2="0%" y2="9.687%" id="aS"><stop stop-color="#0100A3" offset="0%"/><stop stop-color="#0049DE" offset="100%"/></linearGradient><linearGradient x1="98.569%" y1="92.861%" x2="2.701%" y2="3.682%" id="aT"><stop stop-color="#4AA8FF" offset="0%"/><stop stop-color="#0085FF" stop-opacity="0" offset="100%"/></linearGradient><linearGradient x1="4.119%" y1="0%" x2="59.897%" y2="161.919%" id="aU"><stop stop-opacity="0" offset="0%"/><stop offset="100%"/></linearGradient><linearGradient x1="90.108%" y1="66.297%" x2="0%" y2="14.086%" id="aV"><stop stop-opacity="0" offset="0%"/><stop offset="100%"/></linearGradient><linearGradient x1="85.482%" y1="119.367%" x2="-37.616%" y2="0%" id="aW"><stop stop-color="#B1C5FF" stop-opacity="0" offset="0%"/><stop stop-color="#7CD4FF" offset="100%"/></linearGradient><linearGradient x1="85.482%" y1="119.367%" x2="-37.616%" y2="0%" id="aX"><stop stop-color="#BCF" stop-opacity=".201" offset="0%"/><stop stop-color="#7CD4FF" offset="100%"/></linearGradient><linearGradient x1="10.112%" y1="100%" x2="25.345%" y2="14.691%" id="aY"><stop stop-opacity="0" offset="0%"/><stop offset="100%"/></linearGradient><linearGradient x1="-78.864%" y1="-67.142%" x2="97.758%" y2="100%" id="aZ"><stop stop-color="#FFF" stop-opacity="0" offset="0%"/><stop stop-color="#2496FF" offset="100%"/></linearGradient><filter x="-8.9%" y="-15.4%" width="117.8%" height="130.7%" filterUnits="objectBoundingBox" id="I"><feGaussianBlur stdDeviation="8" in="SourceGraphic"/></filter><filter x="-8.3%" y="-9.3%" width="116.7%" height="118.7%" filterUnits="objectBoundingBox" id="aP"><feGaussianBlur stdDeviation="-2 2.4492936e-16" in="SourceGraphic"/></filter><filter x="0%" y="0%" width="100%" height="100%" filterUnits="objectBoundingBox" id="bn"><feGaussianBlur in="SourceGraphic"/></filter><filter x="-400%" y="-400%" width="900%" height="900%" filterUnits="objectBoundingBox" id="bm"><feGaussianBlur stdDeviation="4" in="SourceGraphic"/></filter><filter x="-32.6%" y="-56.3%" width="165.2%" height="212.5%" filterUnits="objectBoundingBox" id="e"><feGaussianBlur stdDeviation="-0.771555451 -6.95734879" in="SourceGraphic"/></filter><filter x="-138.9%" y="-109.1%" width="377.8%" height="318.2%" filterUnits="objectBoundingBox" id="bl"><feGaussianBlur stdDeviation="4" in="SourceGraphic"/></filter><filter x="0%" y="0%" width="100%" height="100%" filterUnits="objectBoundingBox" id="bk"><feGaussianBlur in="SourceGraphic"/></filter><filter x="0%" y="0%" width="100%" height="100%" filterUnits="objectBoundingBox" id="bj"><feGaussianBlur in="SourceGraphic"/></filter><filter x="0%" y="0%" width="100%" height="100%" filterUnits="objectBoundingBox" id="bi"><feGaussianBlur in="SourceGraphic"/></filter><filter x="-400%" y="-400%" width="900%" height="900%" filterUnits="objectBoundingBox" id="bv"><feGaussianBlur stdDeviation="4" in="SourceGraphic"/></filter><filter x="-60%" y="-60%" width="220%" height="220%" filterUnits="objectBoundingBox" id="bh"><feGaussianBlur stdDeviation="1" in="SourceGraphic"/></filter><filter x="0%" y="0%" width="100%" height="100%" filterUnits="objectBoundingBox" id="bu"><feGaussianBlur in="SourceGraphic"/></filter><filter x="-300%" y="-300%" width="700%" height="700%" filterUnits="objectBoundingBox" id="bg"><feGaussianBlur stdDeviation="4" in="SourceGraphic"/></filter><filter x="-226.2%" y="-130.7%" width="552.4%" height="361.5%" filterUnits="objectBoundingBox" id="aL"><feGaussianBlur stdDeviation="-8.55484406 -5.17828573" in="SourceGraphic"/></filter><filter x="-226.2%" y="-130.7%" width="552.4%" height="361.5%" filterUnits="objectBoundingBox" id="aM"><feGaussianBlur stdDeviation="0.600803093 -9.98193547" in="SourceGraphic"/></filter><filter x="-171.4%" y="-171.4%" width="442.9%" height="442.9%" filterUnits="objectBoundingBox" id="bt"><feGaussianBlur stdDeviation="4" in="SourceGraphic"/></filter><filter x="-8.3%" y="-9.3%" width="116.7%" height="118.7%" filterUnits="objectBoundingBox" id="aO"><feGaussianBlur stdDeviation="-2 2.4492936e-16" in="SourceGraphic"/></filter><filter x="-240%" y="-240%" width="580%" height="580%" filterUnits="objectBoundingBox" id="bo"><feGaussianBlur stdDeviation="4" in="SourceGraphic"/></filter><filter x="-226.2%" y="-130.7%" width="552.4%" height="361.5%" filterUnits="objectBoundingBox" id="aQ"><feGaussianBlur stdDeviation="0.11494894 -9.99933932" in="SourceGraphic"/></filter><filter x="-226.2%" y="-130.7%" width="552.4%" height="361.5%" filterUnits="objectBoundingBox" id="aR"><feGaussianBlur stdDeviation="9.15901363 4.01403405" in="SourceGraphic"/></filter><filter x="-16.2%" y="-11.1%" width="132.4%" height="122.2%" filterUnits="objectBoundingBox" id="aq"><feGaussianBlur stdDeviation="2" in="SourceGraphic"/></filter><filter x="0%" y="0%" width="100%" height="100%" filterUnits="objectBoundingBox" id="y"><feGaussianBlur in="SourceGraphic"/></filter><filter x="0%" y="0%" width="100%" height="100%" filterUnits="objectBoundingBox" id="bs"><feGaussianBlur in="SourceGraphic"/></filter><filter x="-337.5%" y="-337.5%" width="775%" height="775%" filterUnits="objectBoundingBox" id="br"><feGaussianBlur stdDeviation="9" in="SourceGraphic"/></filter><filter x="-10.6%" y="-10.4%" width="121.3%" height="120.8%" filterUnits="objectBoundingBox" id="au"><feGaussianBlur stdDeviation="16" in="SourceGraphic"/></filter><filter x="-32.6%" y="-56.3%" width="165.2%" height="212.5%" filterUnits="objectBoundingBox" id="d"><feGaussianBlur stdDeviation="-0.771555451 -6.95734879" in="SourceGraphic"/></filter><filter x="-300%" y="-300%" width="700%" height="700%" filterUnits="objectBoundingBox" id="bq"><feGaussianBlur stdDeviation="4" in="SourceGraphic"/></filter><filter x="0%" y="0%" width="100%" height="100%" filterUnits="objectBoundingBox" id="bp"><feGaussianBlur in="SourceGraphic"/></filter><filter x="-75%" y="-75%" width="250%" height="250%" filterUnits="objectBoundingBox" id="ba"><feGaussianBlur stdDeviation="2" in="SourceGraphic"/></filter><filter x="0%" y="0%" width="100%" height="100%" filterUnits="objectBoundingBox" id="bb"><feGaussianBlur in="SourceGraphic"/></filter><filter x="-300%" y="-300%" width="700%" height="700%" filterUnits="objectBoundingBox" id="bc"><feGaussianBlur stdDeviation="4" in="SourceGraphic"/></filter><filter x="0%" y="0%" width="100%" height="100%" filterUnits="objectBoundingBox" id="bd"><feGaussianBlur in="SourceGraphic"/></filter><filter x="-150%" y="-150%" width="400%" height="400%" filterUnits="objectBoundingBox" id="be"><feGaussianBlur stdDeviation="4" in="SourceGraphic"/></filter><filter x="0%" y="0%" width="100%" height="100%" filterUnits="objectBoundingBox" id="bf"><feGaussianBlur in="SourceGraphic"/></filter></defs><g fill="none" fill-rule="evenodd"><g opacity=".139" fill-rule="nonzero" stroke-linecap="square"><path d="M572 99.5L60 390m537.5-247.5L12 479" stroke="url(#a)" transform="translate(962 30)"/><path d="M621 356L1 714" stroke="url(#b)" transform="rotate(60 766.02 1383.116)"/><path d="M622 418L2 776" stroke="url(#b)" transform="rotate(60 767.02 1445.116)"/><path d="M630 479L10 837" stroke="url(#b)" transform="rotate(60 775.02 1506.116)"/><path d="M632 542L12 900" stroke="url(#b)" transform="rotate(60 777.02 1569.116)"/><path d="M632 599L12 957" stroke="url(#b)" transform="rotate(60 777.02 1626.116)"/><path d="M622 658L2 1016" stroke="url(#b)" transform="rotate(60 767.02 1685.116)"/><path d="M676 328L56 686" stroke="url(#b)" transform="rotate(60 821.02 1355.116)"/><path d="M734 300L114 658" stroke="url(#b)" transform="rotate(60 879.02 1327.116)"/><path d="M734 240L114 598" stroke="url(#b)" transform="rotate(60 879.02 1267.116)"/><path d="M787 211L167 569" stroke="url(#b)" transform="rotate(60 932.02 1238.116)"/><path d="M837 183L217 541" stroke="url(#b)" transform="rotate(60 982.02 1210.116)"/><path d="M764.47 141.632l-497.518 298.79" stroke="url(#b)" transform="rotate(60 970.971 1139.039)"/><path d="M610.5 189.5L11 541m599.5-296.25L10 599m632.5-309.5L3 663m700.5-351.5L3 721m757.5-380.5L114 720m704.5-354.75L217 721m620.019-309.5L320 720m498.5-234.5L424 720" stroke="url(#a)" transform="translate(962 30)"/></g><g stroke-linecap="round"><path stroke="url(#c)" stroke-width="3" d="M96 151l-69 40 .157-8.582" transform="translate(1334 208)"/><path d="M96 151l-69 40" stroke="url(#c)" stroke-width="3" filter="url(#d)" transform="translate(1334 208)"/><path stroke="url(#c)" stroke-width="3" d="M101 330l-69 40 .157-8.582" transform="translate(1334 208)"/><path d="M101 330l-69 40" stroke="url(#c)" stroke-width="3" filter="url(#e)" transform="translate(1334 208)"/><g stroke-width="2"><path stroke="url(#f)" d="M105 90l103 58L3.775 267" transform="translate(1334 208)"/><path stroke="url(#g)" d="M60 .616L.116 34 55 64" transform="translate(1334 208)"/></g><path d="M31.401 187.336l.115-7.336m4.885 186.336l.115-7.336m-.115-174.664l.115-7.336m4.885 186.336l.115-7.336" stroke="url(#h)" stroke-width="3" transform="translate(1334 208)"/></g><path fill="url(#i)" d="M30.028 31.99L59.73 16.118v36.034l-29.703 15.87z" transform="translate(1386 242)"/><path fill="url(#j)" d="M.22 16.101L29.922.231 59.73 16.062 30.028 31.935z" transform="translate(1386 242)"/><path fill="url(#k)" opacity=".616" d="M48.819 10.252L19.132 26.116l-7.356-3.907L41.462 6.344z" transform="translate(1386 242)"/><path fill="url(#l)" d="M30.028 31.99L.324 16.118v36.034l29.704 15.87z" transform="translate(1386 242)"/><path fill="url(#m)" opacity=".53" d="M11.775 58.263V22.21l7.357 3.907V62.17z" transform="translate(1386 242)"/><path fill="url(#i)" d="M30.028 31.99L59.73 16.118v36.034l-29.703 15.87z" transform="translate(1326 277)"/><path fill="url(#j)" d="M.22 16.101L29.922.231 59.73 16.062 30.028 31.935z" transform="translate(1326 277)"/><path fill="url(#k)" opacity=".616" d="M48.819 10.252L19.132 26.116l-7.356-3.907L41.462 6.344z" transform="translate(1326 277)"/><path fill="url(#l)" d="M30.028 31.99L.324 16.118v36.034l29.704 15.87z" transform="translate(1326 277)"/><path fill="url(#m)" opacity=".53" d="M11.775 58.263V22.21l7.357 3.907V62.17z" transform="translate(1326 277)"/><path fill="url(#i)" d="M30.028 31.99L59.73 16.118v36.034l-29.703 15.87z" transform="translate(1268 312)"/><path fill="url(#j)" d="M.22 16.101L29.922.231 59.73 16.062 30.028 31.935z" transform="translate(1268 312)"/><path fill="url(#k)" opacity=".616" d="M48.819 10.252L19.132 26.116l-7.356-3.907L41.462 6.344z" transform="translate(1268 312)"/><path fill="url(#l)" d="M30.028 31.99L.324 16.118v36.034l29.704 15.87z" transform="translate(1268 312)"/><path fill="url(#m)" opacity=".53" d="M11.775 58.263V22.21l7.357 3.907V62.17z" transform="translate(1268 312)"/><g transform="translate(1185 99)"><path stroke="#FFF" fill="url(#n)" opacity=".443" d="M139.894 219.904l-27.07 13.45L85 219.903 112.823 205z"/><path d="M111.846 220.94a2.848 2.848 0 01-2.846-2.85V202h5.692v16.091a2.848 2.848 0 01-2.846 2.848" fill="#0A1351"/><path d="M103 118v81.77a6.58 6.58 0 006.578 6.583h4.751a6.58 6.58 0 006.578-6.583V118H103z" fill="url(#o)"/><path d="M115.078 118v63.347a2.917 2.917 0 01-2.915 2.918 2.917 2.917 0 01-2.916-2.918V118H103v81.77a6.58 6.58 0 006.578 6.583h4.751a6.58 6.58 0 006.58-6.583V118h-5.831z" fill="url(#p)"/><path stroke="url(#q)" fill="url(#r)" opacity=".254" d="M139.894 166.904l-27.07 13.45L85 166.903 112.823 152z"/><path stroke="url(#q)" fill="url(#r)" opacity=".254" d="M139.894 178.904l-27.07 13.45L85 178.903 112.823 164z"/><path d="M31.475 225.237a2.432 2.432 0 01-2.517-.018L6.373 211.333A5.88 5.88 0 014 206.613V36.017C4 16.114 20.133-.02 40.027 0c9.59.009 17.358 7.808 17.358 17.404V206.51c0 1.92-.936 3.716-2.507 4.816l-23.403 13.912z" fill="url(#s)"/><path d="M14.67 220l-8.297-8.667A5.88 5.88 0 014 206.613V36.017c0-6.674 3.556-15.205 10.67-25.595C23.555 4.141 31.332 1 38 1c.446 0-10.373 2.543-16.992 11-6.618 8.457-6.265 19.065-6.26 20.39.434 125.372.408 187.909-.079 187.61z" fill="url(#t)"/><path d="M15 72v146.8l35.374-5.105c4.344-.738 6.931-1.943 6.931-3.231V83.587C57.305 77.617 38.825 72.69 15 72" fill="url(#u)" opacity=".189"/><path d="M137.164 88.573L56.097 43 15 64.442l59.856 34.742c20.87 12.114 41.88 14.729 62.518 2.22 4.862-2.946 4.746-10.044-.21-12.83" fill="url(#v)"/><path d="M137.557 100.461c-20.637 12.508-41.092 10.394-61.962-1.72L15.115 64 15 85.249l48.467 27.292c26.536 15.401 37.221 24.438 70.537 12.457 1.69-.608 2.902-1.413 4.647-3.243.832-.873 2.498-2.037 2.498-3.242l-.117-24.421s-.556 4.579-3.475 6.369" fill="url(#n)"/><path d="M29.316 184l-26.17 16.069A6.603 6.603 0 000 205.694v22.24a6.63 6.63 0 002.676 5.322l25.476 15.665c.87.535 1.963.542 2.84.02l26.4-15.692a6.632 6.632 0 002.827-5.433v-22.445a6.6 6.6 0 00-3.342-5.741L29.316 184z" fill="url(#w)"/><path d="M127.547 96.918c0 3.82-7.062 6.918-15.773 6.918-8.712 0-15.774-3.097-15.774-6.918S103.062 90 111.774 90c8.711 0 15.773 3.097 15.773 6.918" fill="url(#x)"/><path d="M119.774 96.46c0 1.91-3.531 3.46-7.887 3.46S104 98.37 104 96.46s3.53-3.46 7.887-3.46c4.356 0 7.887 1.55 7.887 3.46" fill="url(#o)"/><circle fill="url(#o)" filter="url(#y)" cx="114.5" cy="54.5" r="2.5"/></g><path fill="url(#z)" d="M0 57.93L89.54 0l68.3 41.676-90.79 56.263z" transform="translate(1107 282)"/><path fill="url(#A)" opacity=".296" style="mix-blend-mode:overlay" d="M0 57.93L89.54 0l68.3 41.676-90.79 56.263z" transform="translate(1107 282)"/><path fill="url(#B)" d="M68 108.93L157.54 51l39.564 23.338-90.789 56.263z" transform="translate(1107 282)"/><path fill="url(#C)" d="M106 129.846L196.372 74l1.667 60.014z" transform="translate(1107 282)"/><path fill="url(#C)" d="M67 97.847L157.372 42l1.667 60.014z" transform="translate(1107 282)"/><g transform="translate(862 331)"><path d="M285 358.066c162-8.738 246-117.782 218-190.475C475 94.9 395.391 87.19 263.966 87.19S26 148.914 26 225.055c0 76.141 97 141.749 259 133.01z" fill="url(#D)" opacity=".175" style="mix-blend-mode:overlay"/><path d="M13.087 103.17A3421.528 3421.528 0 013 175.615c11.835 41.459 29.038 70.016 51.61 85.673 142.401 98.773 406.32 44.616 426.156-71.918 2.546-14.958 1.935-28.102-1.834-39.432L446.837 94c-284.997 23.242-429.58 26.298-433.75 9.17z" fill="#0A1351"/><ellipse fill="url(#E)" cx="233.5" cy="125" rx="220.5" ry="125"/><path d="M233.5 250C355.279 250 454 194.036 454 125c-10 65-102 117-220.5 117S29 192 13 125c3 73 98.721 125 220.5 125z" fill="url(#F)" opacity=".485" style="mix-blend-mode:overlay"/><path d="M233.5 250C355.279 250 454 194.036 454 125c-10 65-102 117-220.5 117S29 192 13 125c3 73 98.721 125 220.5 125z" fill="url(#G)" style="mix-blend-mode:overlay"/><path d="M233.5 250C355.279 250 454 194.036 454 125c-10 65-102 117-220.5 117S29 192 13 125c3 73 98.721 125 220.5 125z" fill="url(#H)" style="mix-blend-mode:overlay"/><path d="M104 222c23.818 9.438 27.5 18 68 14-57-2-142-43-159-111 0 26 38 76 91 97z" fill="url(#G)" opacity=".814" style="mix-blend-mode:overlay"/><path d="M109.628 62.893c44.35-35.621 133.597-41.08 199.34-12.196 65.744 28.887 83.089 81.178 38.738 116.799-44.348 35.62-133.597 41.08-199.34 12.194-65.743-28.886-83.088-81.178-38.738-116.797" stroke="url(#h)" stroke-width="3" stroke-linecap="round" transform="rotate(-6 228.667 115.194)"/><path d="M107.692 74.314c40.384-40.061 128.572-54.82 196.974-32.965 68.402 21.856 91.118 72.048 50.734 112.11-40.382 40.06-128.571 54.82-196.974 32.963-68.402-21.855-91.118-72.048-50.734-112.108" stroke="#182C96" stroke-width="2" opacity=".453"/><path d="M109.628 62.893c44.35-35.621 133.597-41.08 199.34-12.196 65.744 28.887 83.089 81.178 38.738 116.799-44.348 35.62-133.597 41.08-199.34 12.194-65.743-28.886-83.088-81.178-38.738-116.797" stroke="#0FF" stroke-width="3" stroke-linecap="round" filter="url(#I)" transform="rotate(-6 228.667 115.194)"/><path d="M109.628 62.893c44.35-35.621 133.597-41.08 199.34-12.196 65.744 28.887 83.089 81.178 38.738 116.799-44.348 35.62-133.597 41.08-199.34 12.194-65.743-28.886-83.088-81.178-38.738-116.797" stroke="url(#J)" stroke-width="3" stroke-linecap="round" transform="rotate(-6 228.667 115.194)"/><path d="M199.636 213.619C135.444 206.283 80.423 182.44 63 121" stroke="url(#K)" stroke-width="3" stroke-linecap="round"/><path d="M331.223 40.23c58.69 32.095 74.278 83.448 35.764 128.382" stroke="url(#L)" stroke-width="3" stroke-linecap="round" transform="rotate(-4 359.649 104.42)"/><path d="M349.649 28.082c95.124 34.821 112.59 107.872 50.909 158.589-61.68 50.716-187.395 60.544-280.792 21.951C26.37 170.029 5.13 103.51 66.81 52.794 128.49 2.078 255.703-6.308 349.648 28.082z" stroke="url(#M)" stroke-width="3" transform="rotate(-2 234.262 119.754)"/><path d="M22.105 175.565c.46.123 1.541.414 2.215 1.35.917 1.271.54 2.978.333 3.83-1.687 6.928-5.145 10.686-3.936 13.536.918 2.165 4.278 3.21 6.653 3.06 4.29-.27 5.36-4.447 9.987-4.579.513-.014 3.114-.037 4.947 1.59 2.747 2.44 2.138 7.144 1.52 11.204-.879 5.786-2.966 15.277-5.285 24.736-6.064-4.815-13.745-14.312-20.96-25.875a94.393 94.393 0 01-10.336-22.882c.755-.506 10.71-7.087 14.862-5.97z" fill="url(#N)" transform="rotate(5 25.796 202.864)"/><path d="M29.254 189.049c-.393 2.299-6.576 20.206-7.004 20.459-2.723-2.383-10.04-16.982-11.916-22.114-.765-2.093-3.376-8.19-7.834-18.29l1.382-7.147c5.781 4.805 11.746 7.964 17.894 9.477 6.018 1.48-1.16 7.9-2.284 9.942-.622 1.13-.869 3.024.011 3.98 1.158 1.26 3.847.44 7.727 1.232.477.097 1.424.311 1.853 1.058.317.55.215 1.148.17 1.403z" fill="url(#O)" opacity=".412" transform="rotate(5 15.902 185.732)"/><path d="M95.02 233.332a222.218 222.218 0 01-33.729-17.323v4.619a227.245 227.245 0 0031.826 16.124 226.855 226.855 0 0033.953 10.931v-3.984a221.88 221.88 0 01-32.05-10.367" fill="url(#P)" transform="rotate(2 94.18 231.846)"/><path d="M93.03 240.269a221.894 221.894 0 01-32.007-16.265v4.6a227.222 227.222 0 0065.779 26.427v-3.989A221.682 221.682 0 0193.03 240.27" fill="url(#P)" transform="rotate(2 93.912 239.518)"/><path d="M90.626 246.962A222.107 222.107 0 0160.758 232v4.556a227.398 227.398 0 0027.964 13.827 227.059 227.059 0 0037.815 11.813v-3.963a222.167 222.167 0 01-35.911-11.271" fill="url(#Q)" transform="rotate(2 93.648 247.098)"/><path d="M89.147 254.246a221.835 221.835 0 01-28.66-14.251v4.545a227.047 227.047 0 0026.758 13.127 227.055 227.055 0 0039.02 12.075v-3.967a221.88 221.88 0 01-37.118-11.53" fill="url(#P)" transform="rotate(2 93.376 254.868)"/><path d="M311.277 261.806A206.528 206.528 0 01294 264.382v4.855c5.6-.581 11.574-1.416 17.901-2.639a207.053 207.053 0 0025.397-6.603V255a207.22 207.22 0 01-26.021 6.806" fill="url(#R)"/><path d="M312.526 269.401A205.92 205.92 0 01294 272.105v4.856a206.512 206.512 0 0019.15-2.768A207.329 207.329 0 00337.298 268v-5a206.605 206.605 0 01-24.772 6.401" fill="url(#S)" opacity=".484"/><path d="M313.775 277.994A206.24 206.24 0 01294 280.826v4.855a207.224 207.224 0 0020.4-2.895 206.84 206.84 0 0022.898-5.801V272a207.428 207.428 0 01-23.523 5.994" fill="url(#T)"/><path d="M456 164c1.333 2 2.667 4.333 4 7 3.03-5.653 5.03-11.32 6-17 1.455-8.52 1.498-18.644 1-24-1.717-2.916-3.344-7.084-5.061-10 .276 6.34 1.585 21.003-1.006 30.843-1.65 6.26-2.829 8.922-4.933 13.157z" fill="url(#U)"/><path d="M463 174c1.333 2 2.333 4 3 6 2.959-6.986 4.765-13.32 5.419-19 .654-5.68.848-13.347.581-23-1.5-2.667-2.5-4.333-3-5-.75-1 .75 15.003-.999 24.843-1.112 6.26-3.582 11.922-5.001 16.157z" fill="url(#U)"/><path d="M87.36 261.346a221.97 221.97 0 01-27.142-13.356v4.518a227.294 227.294 0 0065.778 24.664V273.2a222.05 222.05 0 01-38.636-11.855" fill="url(#S)" opacity=".765" transform="rotate(2 93.107 262.581)"/><path fill="url(#V)" transform="rotate(3 154.874 279.816)" d="M152.153 304.863h5.443v-50.095h-5.443z"/><path fill="url(#V)" opacity=".423" transform="rotate(3 152.116 284.678)" d="M146.895 304.725h10.443v-40.094h-10.443z"/><path fill="url(#V)" transform="rotate(3 163.192 293.073)" d="M160.47 310.924h5.443v-35.702h-5.443z"/><path fill="url(#V)" opacity=".423" transform="rotate(3 168.002 296.83)" d="M165.28 311.18h5.443v-28.7h-5.443z"/><path d="M479.766 151c6.18 26.418.066 50.566-18.34 72.444-50.436 59.95-165.647 82.85-210.914 85.283-22.336 1.2-68.968.175-110.96-11.921-48.67-14.02-92.3-42.155-103.622-55.938-13.505-16.44-22.009-24.76-33.93-65.109 1.784 4.588-2.751 44.017 40.349 81.615 63.081 55.029 140.719 66.986 208.163 64.249 85.16-3.457 167.457-37.506 207.246-80.755C485.88 210.3 493.216 180.345 479.766 151z" fill="#0085FF"/><path d="M479.766 151C489.922 175 484 200.667 462 228c-50.007 62.13-151 85.125-223 87-134.141 3.493-189.677-53.217-201-67-13.505-16.44-24.079-31.892-36-72.24 1.784 4.587-2.751 44.016 40.349 81.614 63.081 55.029 140.719 66.986 208.163 64.249 85.16-3.457 167.457-37.506 207.246-80.755C485.88 210.3 493.216 180.345 479.766 151z" fill="url(#D)" opacity=".337" style="mix-blend-mode:overlay"/><path d="M479.766 151C489.922 175 484 200.667 462 228c-50.007 62.13-152 84.125-224 86-134.141 3.493-197.495-61.068-211-77.508C13.495 220.052 2 197 2 175.76c1.784 4.588-2.751 44.017 40.349 81.615 63.081 55.029 140.719 66.986 208.163 64.249 85.16-3.457 167.457-37.506 207.246-80.755C485.88 210.3 493.216 180.345 479.766 151z" fill="url(#W)" opacity=".337" style="mix-blend-mode:overlay"/><path fill="url(#X)" d="M196 299.951h6.79V261H196z"/><path fill="url(#R)" d="M196 290.188h6.79V287H196z"/><path fill="url(#Y)" opacity=".351" d="M196 293.188h6.79V290H196z"/><path fill="url(#S)" opacity=".856" d="M196 276.188h6.79V273H196z"/><path fill="url(#X)" d="M206 275.361h6.79V261H206z"/><path fill="url(#R)" d="M206 275.357h6.79V272H206z"/><path fill="url(#Y)" opacity=".351" d="M206 268.357h6.79V265H206z"/><path fill="url(#X)" d="M217 290.781h6.79V261H217z"/><path fill="url(#Y)" opacity=".351" d="M217 290.275h6.79V277H217z"/><path fill="url(#Y)" opacity=".351" d="M217 280.188h6.79V277H217zm0 15h6.79V292H217z"/><path fill="url(#X)" d="M226 286.365h6.79V261H226z"/><path fill="url(#X)" d="M226 268.025h6.79V261H226z"/><path fill="url(#R)" d="M226 270.357h6.79V267H226z"/><path fill="url(#X)" d="M237 270.605h6.79V261H237z"/><path fill="url(#Y)" opacity=".351" d="M237 265.103h6.79V261H237z"/><path fill="url(#X)" d="M246 286.364h6.79V261H246z"/><path fill="url(#S)" opacity=".765" d="M246 281.273h6.79V277H246z"/><path fill="url(#R)" d="M246 278.356h6.79V275H246z"/><path fill="url(#X)" d="M255 292.785h6.79V261H255z"/><path fill="url(#X)" d="M255 273.527h6.79V261H255zm10 26.423h6.79V261H265z"/><path fill="url(#X)" d="M265 300.025h6.79V284H265z"/><path fill="url(#R)" d="M265 280h6.79v4.103H265z"/><path fill="url(#X)" d="M275 279.028h6.79V261H275z"/><path fill="url(#Y)" opacity=".642" d="M275 272.356h6.79V269H275z"/><path d="M355.084 249.245c0 2.345-1.81 4.245-4.043 4.245-2.232 0-4.041-1.9-4.041-4.245s1.809-4.245 4.041-4.245c2.234 0 4.043 1.9 4.043 4.245" fill="url(#Z)"/><path d="M359.084 261.245c0 2.345-1.81 4.246-4.043 4.246-2.232 0-4.041-1.9-4.041-4.246 0-2.345 1.809-4.245 4.041-4.245 2.234 0 4.043 1.9 4.043 4.245" fill="url(#T)"/><path d="M392.555 243.78a2.778 2.778 0 11-5.555 0 2.778 2.778 0 115.555 0" fill="url(#S)" opacity=".765"/><path d="M362.084 273.246c0 2.345-1.81 4.247-4.043 4.247-2.232 0-4.041-1.902-4.041-4.247 0-2.345 1.809-4.245 4.041-4.245 2.233 0 4.043 1.9 4.043 4.245" fill="url(#R)"/><path d="M396.207 241.728c4.362 9.564 5.133 18.582 1.72 20.14-3.412 1.56-9.714-4.93-14.076-14.495-4.363-9.566-5.134-18.583-1.721-20.142 3.41-1.559 9.713 4.932 14.077 14.497z" stroke="url(#aa)" stroke-linecap="round"/><path d="M395.758 247c-5.969 8.654-13.309 13.939-16.395 11.807-3.088-2.133-.752-10.875 5.217-19.529 5.968-8.653 13.309-13.938 16.395-11.805 3.087 2.132.75 10.874-5.217 19.528z" stroke="url(#aa)" stroke-linecap="round"/><path d="M452.517 182c-1.81 1.131-2.56 2.35-2.913 3.125-2.352 5.165 4.095 10.148 2.497 18.124-.425 2.127-1.25 3.6-1.457 3.958-3.382 5.868-10.323 6.467-14.363 8.333-4.7 2.17-10.124 8.204-12.281 25.833" stroke="url(#ab)" stroke-linecap="round"/><path d="M447.96 180a9.872 9.872 0 00-1.248 2.5c-3.2 9.696 10.832 20.054 8.534 23.75-2.212 3.558-15.83-5.06-22.481-.208-5.48 3.997-4.003 15.518-1.665 25.206" stroke="url(#ac)" opacity=".249"/><path d="M387.76 251.057c-10.378-1.64-18.315-5.977-17.73-9.686.585-3.707 9.473-5.382 19.85-3.74 10.376 1.64 18.315 5.976 17.729 9.684-.586 3.709-9.472 5.382-19.85 3.742z" stroke="url(#ad)" stroke-linecap="round"/></g><path d="M3.564 60c-2.1 1.618-5.633 10.969 0 14.835l73.378 43.115a17.964 17.964 0 0016.82-.08l80.601-47.199c4.894-2.974 3.949-8.903 2.336-10.671-115.242.187-172.954.187-173.135 0z" fill="url(#D)" opacity=".175" style="mix-blend-mode:overlay" transform="translate(1357 131)"/><path d="M96.275 103.883l80.847-46.917c2.754-1.462 4.14-10.1 1.361-11.518L101.665 1.99a18.235 18.235 0 00-16.753.095L3.106 49.163c-2.678 1.406.014 10.549 2.7 11.942l73.599 42.857a18.163 18.163 0 0016.87-.08" fill="url(#E)" transform="translate(1357 131)"/><path d="M178.7 47c-.198.163-.297.392-.537.52l-82.016 48.1a17.967 17.967 0 01-16.82.08L3.277 51.059c-.377-.198-.58-.527-.851-.808-2.1 1.618-2.494 7.718 3.14 11.584l73.377 43.115a17.964 17.964 0 0016.82-.08l80.601-47.199c4.894-2.974 3.949-8.903 2.336-10.671" fill="url(#ae)" transform="translate(1357 131)"/><path fill="url(#o)" d="M120.28 60L112 64.964 113.72 66l8.28-4.963zm-61.56 2L67 66.964 65.28 68 57 63.037zm56-28l8.28 4.964L121.28 40 113 35.037zm-47.44 0L59 38.964 60.72 40 69 35.036z" transform="translate(1357 131)"/><path d="M170 47.668c0 2.577-3.315 4.332-7.457 4.332-4.142 0-7.543-1.755-7.543-4.332S158.358 43 162.5 43c4.142 0 7.5 2.09 7.5 4.668M96 91.187C96 94.052 92.465 96 88.046 96S80 94.052 80 91.187C80 88.323 83.582 86 88 86s8 2.323 8 5.187m-69-41.52C27 52.245 23.685 54 19.543 54 15.401 54 12 52.245 12 49.667 12 47.091 15.358 45 19.5 45c4.142 0 7.5 2.09 7.5 4.667" fill="url(#V)" opacity=".423" transform="translate(1357 131)"/><path d="M24 49.113C24 50.83 21.79 52 19.03 52 16.266 52 14 50.831 14 49.113 14 47.394 16.239 46 19 46s5 1.394 5 3.113m144-2.001c0 1.718-2.21 2.888-4.97 2.888-2.763 0-5.03-1.17-5.03-2.888S160.239 44 163 44s5 1.394 5 3.112M93 91.113C93 92.83 90.79 94 88.029 94S83 92.831 83 91.113C83 89.394 85.239 88 88 88s5 1.394 5 3.113" fill="url(#af)" transform="translate(1357 131)"/><path d="M100 7.667C100 10.245 96.686 12 92.543 12 88.401 12 85 10.245 85 7.667 85 5.091 88.358 3 92.5 3c4.142 0 7.5 2.09 7.5 4.667" fill="url(#V)" opacity=".423" transform="translate(1357 131)"/><path d="M98 7.113C98 8.83 95.79 10 93.029 10S88 8.831 88 7.113C88 5.394 90.24 4 93 4c2.761 0 5 1.394 5 3.113" fill="url(#af)" transform="translate(1357 131)"/><path d="M40.857 37.076l42.058 21.6c7.313 3.28 9.793 10.553 5.036 16.208-5.034 5.634-15.922 7.48-23.816 4.159L18.16 57.163c-5.743-3.169-4.56-10.18 2.136-15.696 6.42-5.536 15.4-7.518 20.56-4.391z" fill="url(#ag)" opacity=".344" transform="rotate(4 -1040.83 20065.793)"/><path d="M82.202 32.603c.259-1.894.265-4.122.06-6.15C80.785 11.843 67.5 0 52.588 0c-2.525 0-4.932.34-7.182.978-1.183.335-4.224 1.367-6.084 2.344-1.86.977-7.067 4.653-8.36 5.93.968-.416 6.42-3.217 8.056-3.616a26.524 26.524 0 016.299-.746c14.912 0 28.197 11.844 29.674 26.453.205 2.029.16 3.999-.1 5.892 5.897 2.85 10.311 8.585 10.98 15.201.912 9.023-6.965 13.4-8.52 14.487 0 0 13.416-6.703 14.752-7.694 0 0 2.834-4.891 1.675-10.868-1.277-6.59-5.755-13.041-11.576-15.758z" fill="url(#ah)" transform="translate(1393 125)"/><path d="M75.299 30.453C73.822 15.843 60.537 4 45.625 4c-9.739 0-17.749 5.06-21.732 12.635-2.808-2.366-6.41-3.817-10.214-3.817-7.929 0-13.72 6.297-12.935 14.066.18 1.784.695 3.49 1.473 5.061a16.224 16.224 0 004.061 5.162l6.297 3.315L16.52 42.5l11.267 5.93 9.368 4.933c.303.162.604.328.913.48l9.218 4.854 12.03 6.332 3.271 1.723c.12.063.237.128.358.188l1.1.58c1.925.854 3.86 1.19 5.661 1.125.06.003.118.003.177.004.093.006.185.014.278.014.047 0 .092-.003.139-.003.046 0 .092.003.139.003 9.649 0 16.696-7.663 15.74-17.116-.668-6.617-5.082-12.352-10.978-15.201" fill="url(#ai)" transform="translate(1393 125)"/><g transform="translate(1020 106)"><path d="M9 127v48.386C9 176.83 11.687 178 15 178c3.314 0 6-1.17 6-2.614V127" stroke="#00E8FF" fill="url(#aj)" opacity=".296" style="mix-blend-mode:overlay"/><path d="M0 102v19.58c0 3.546 6.716 6.42 15 6.42 8.284 0 15-2.874 15-6.42V102H0z" stroke="#00E8FF" fill="url(#aj)" opacity=".296" style="mix-blend-mode:overlay"/><path d="M0 103c0 3.866 6.716 7 15 7 8.284 0 15-3.134 15-7s-6.716-7-15-7c-8.284 0-15 3.134-15 7" fill="url(#ak)"/><path d="M9 46v55.387C9 102.83 12.134 104 16 104s7-1.17 7-2.613V46" stroke="#00E8FF" fill="url(#aj)" opacity=".296" style="mix-blend-mode:overlay"/><path d="M9 46.5c0 1.38 3.134 2.5 7 2.5s7-1.12 7-2.5-3.134-2.5-7-2.5-7 1.12-7 2.5" fill="url(#ak)"/><rect fill="url(#ak)" x="15" width="2" height="46" rx="1"/></g><path fill="url(#al)" opacity=".296" style="mix-blend-mode:overlay" d="M76.5 178V23.59L96.5 12v154.41zm0 0V23.59L56.5 12v154.41z" transform="translate(983 249)"/><path stroke="#00E8FF" fill="url(#A)" opacity=".296" style="mix-blend-mode:overlay" d="M56.5 11.5L77 23l20.5-11.5L77 0z" transform="translate(983 249)"/><path fill="url(#al)" opacity=".296" style="mix-blend-mode:overlay" d="M49.5 194V38.66L69.5 27v155.34zm-1 0V38.66L28.5 27v155.34z" transform="translate(983 249)"/><path fill="url(#ak)" d="M28.5 27L49 39l20.5-12L49 15z" transform="translate(983 249)"/><path fill="url(#al)" opacity=".296" style="mix-blend-mode:overlay" d="M21.5 56.59V211l20-11.59V45zM.5 199.41l20 11.59V56.59L.5 45z" transform="translate(983 249)"/><path stroke="#00E8FF" fill="url(#A)" opacity=".296" style="mix-blend-mode:overlay" d="M.5 44.5L21 56l20.5-11.5L21 33z" transform="translate(983 249)"/><path stroke="#00E8FF" fill="url(#am)" opacity=".395" style="mix-blend-mode:overlay" d="M240.5 191.812V462l60-34.91L265.958 177zm-60 235.278l60 34.91V191.812L215.043 177z" transform="translate(865 -2)"/><path stroke="#00E8FF" fill="url(#A)" opacity=".296" style="mix-blend-mode:overlay" d="M215 177l25.5 14.867L266 177l-25-14z" transform="translate(865 -2)"/><path fill="url(#an)" d="M240.5 182.309V185l24.5-14v-2z" transform="translate(865 -2)"/><path fill="url(#ao)" d="M216 171l24.5 14v-2.691L216 169z" transform="translate(865 -2)"/><path fill="url(#E)" d="M216 169l24.5 14 24.5-14-24.5-13z" transform="translate(865 -2)"/><path d="M260.135 124.88c-2.79-4.885-8.126-8.973-14.755-9.749-6.638-.777-11.618 2.115-13.087 3.042l-3.33 2.72c1.465-.98 5.667-3.513 11.405-3.233 6.519.32 12.335 4.14 15.09 9.218 3.41 6.286 2.193 13.29-.21 17.358l-14.954 25.318-.855 1.446 3.239-1.842a304.656 304.656 0 008.55-10.997c8.47-11.424 9.485-14.463 9.915-15.963.929-3.229 2.974-10.346-1.008-17.318" fill="url(#ap)" transform="translate(865 -2)"/><path d="M238.42 170.708a.77.77 0 00.599.292.765.765 0 00.571-.284l15.926-26.939a17.47 17.47 0 00.21-17.47c-6.85-12.244-24.808-12.45-31.952-.366l-.363.613a17.47 17.47 0 00-.138 17.598l15.147 26.556z" fill="url(#o)" transform="translate(865 -2)"/><path d="M238.42 170.708a.77.77 0 00.599.292.765.765 0 00.571-.284l15.926-26.939a17.47 17.47 0 00.21-17.47c-6.85-12.244-24.808-12.45-31.952-.366l-.363.613a17.47 17.47 0 00-.138 17.598l15.147 26.556z" fill="url(#o)" style="mix-blend-mode:lighten" filter="url(#aq)" transform="translate(865 -2)"/><path d="M234.487 139c-1.87-2.242-1.607-5.18.59-6.56 2.196-1.382 5.492-.683 7.363 1.56 1.87 2.242 1.606 5.18-.59 6.56-2.196 1.381-5.493.683-7.363-1.56m11.433 6.44c4.835-3.04 5.416-9.506 1.299-14.445-4.119-4.937-11.377-6.475-16.212-3.435-4.835 3.04-5.416 9.506-1.298 14.444 4.118 4.938 11.376 6.476 16.211 3.436" fill="url(#ar)" transform="translate(865 -2)"/><path fill="url(#as)" opacity=".133" d="M295.115 363L293.55 0H180.115v363z" transform="translate(865 -2)"/><path d="M209 18c113.572 0 172.906 117.333 178 352 42.667 74.59 64 103.924 64 88V3H0c6.667 275.998 10 427.665 10 455 0 22.254 22.667-9.413 68-95-4-230 39.667-345 131-345z" fill="url(#at)" opacity=".541" filter="url(#au)" transform="translate(865 -2)"/><path d="M230.5 583C352.279 583 451 527.036 451 458c0-46.024-2-197.69-6-455H10v455c0 69.036 98.721 125 220.5 125z" fill="url(#at)" opacity=".218" transform="translate(865 -2)"/><path fill="url(#av)" d="M200 415h1v99h-1z" transform="translate(865 -2)"/><path d="M78.916 103.232l-78.608-40C11.705 49.9 24.936 38.565 40 29.232c15.064-9.333 35.064-18.769 60-28.307l211.447 155.802-68.51 39.393-17.531-10.15c-.88 1.326-10.682 4.736-19.044 0-5.575-3.159-8.969-8.738-10.183-16.738l-89.317-50.55c-1.241 1.46-4.862 1.918-10.862 1.37-6-.546-11.695-6.153-17.084-16.82z" fill="url(#aw)" transform="matrix(-1 0 0 1 1300 343.768)"/><path d="M988.553 500.496v32.01l68.468 39.48v-32.01z"/><path fill="#FFF" d="M988.553 508.82v15.308l13.268 7.652v-15.31z"/><path d="M350.604 152.87l-3.648 2.199c-1.428.86-3.25-.167-3.25-1.837V140.86c0-.75.394-1.448 1.037-1.836l3.646-2.2c1.429-.862 3.25.168 3.25 1.837v12.371c0 .752-.392 1.448-1.035 1.837" fill="url(#ax)" transform="matrix(-1 0 0 1 1300 295)"/><path d="M1178.2 431.806c-.291-.2-8.755-5.08-9.067-5.228a6.45 6.45 0 00-3.669-1.14c-6.551-.013-13.601 9.196-15.747 20.568-1.818 9.65.478 17.752 5.218 19.994.291.198 8.754 5.078 9.069 5.228a6.444 6.444 0 003.667 1.14c6.552.012 13.603-9.197 15.747-20.568 1.82-9.65-.478-17.753-5.217-19.994" fill="#000"/><path d="M140.307 156.756c2.144 11.371-1.427 20.6-7.978 20.611-6.552.013-13.603-9.196-15.747-20.568-2.144-11.371 1.427-20.6 7.978-20.612 6.552-.013 13.603 9.197 15.747 20.569" fill="url(#ay)" transform="matrix(-1 0 0 1 1300 295)"/><path d="M134.593 156.766c1.112 5.895-.74 10.678-4.136 10.684-3.396.007-7.05-4.768-8.161-10.66-1.112-5.895.74-10.678 4.136-10.685 3.396-.006 7.049 4.766 8.161 10.66" fill="url(#az)" transform="matrix(-1 0 0 1 1300 295)"/><path fill="url(#i)" d="M97.857 40.237l136.875 79.027.002 78.988L97.86 119.264z" transform="matrix(-1 0 0 1 1300 295)"/><path fill="url(#j)" d="M97.857 40.237l136.876 79.026 68.435-39.507L166.294.734z" transform="matrix(-1 0 0 1 1300 295)"/><path fill="#002CAD" d="M1065.268 512.694l-68.437-39.393v-19.539l68.434 39.49z"/><path d="M1058.97 500.703c-.29-.198-8.753-5.08-9.067-5.228a6.46 6.46 0 00-3.669-1.14c-6.552-.013-13.6 9.197-15.746 20.569-1.82 9.648.477 17.752 5.217 19.994.292.198 8.755 5.078 9.07 5.226a6.437 6.437 0 003.667 1.141c6.551.013 13.602-9.197 15.746-20.569 1.82-9.648-.477-17.752-5.217-19.993" fill="#000"/><path d="M259.537 225.652c2.144 11.372-1.427 20.6-7.979 20.613-6.551.013-13.602-9.197-15.746-20.569-2.145-11.37 1.427-20.599 7.978-20.612 6.551-.012 13.602 9.198 15.747 20.568" fill="url(#ay)" transform="matrix(-1 0 0 1 1300 295)"/><path d="M253.823 225.664c1.112 5.894-.74 10.677-4.136 10.684-3.396.007-7.05-4.768-8.161-10.661-1.113-5.895.74-10.679 4.136-10.684 3.395-.007 7.048 4.766 8.16 10.66" fill="url(#az)" transform="matrix(-1 0 0 1 1300 295)"/><path fill="#DCDCDC" d="M996.83 453.763l68.435 39.49.003-78.99-68.436-39.506z"/><path fill="url(#aA)" d="M268.955 164.036l16.915 44.246v39.504l-20.041-11.563-10.247-25.948-20.848-12.035v-53.847z" transform="matrix(-1 0 0 1 1300 295)"/><path fill="url(#aB)" d="M285.87 247.787v-39.505l68.434-39.461v39.504z" transform="matrix(-1 0 0 1 1300 295)"/><path fill="url(#aC)" d="M285.87 208.282l-16.915-44.246 68.433-39.461 16.916 44.246z" transform="matrix(-1 0 0 1 1300 295)"/><path d="M285.915 208.707L269 164.46 337.433 125l16.915 44.246-68.433 39.46zm1.216-4l64.217-37.218L336.217 128 272 165.218l15.131 39.489z" fill="url(#aD)" transform="matrix(-1 0 0 1 1300 295)"/><path fill="#B2D2EE" d="M996.832 399.932l68.433 39.46-34.22 19.644-68.434-39.462z"/><path d="M234.735 144.393l34.219 19.643c-10.64-27.833-34.221-44.773-34.221-44.773l.002 25.13z" fill="url(#aE)" transform="matrix(-1 0 0 1 1300 295)"/><path d="M234.733 119.263s23.58 16.94 34.22 44.773l68.437-39.45c-10.64-27.834-34.222-44.772-34.222-44.772l-68.435 39.449z" fill="url(#aF)" transform="matrix(-1 0 0 1 1300 295)"/><path fill="url(#aG)" d="M178.249 161.305l-11.721-30.656-23.711-13.612v23.802z" transform="matrix(-1 0 0 1 1202.143 333.197)"/><path d="M178.249 161.305l-35.432-20.466v-23.802l23.711 13.612 11.72 30.656zm-4.95-5.502l-9.156-24-19.326-10.766v18.425l28.482 16.341z" fill="url(#aH)" transform="matrix(-1 0 0 1 1202.143 333.197)"/><path d="M155.143 116.836l15.953 9.004 5.047-3.037c-6.835-10.034-11.502-16.701-14-20-8-10.562-25.267-21.737-25.267-21.737 9.616 13.562 15.371 22.509 17.267 26.842 1.895 4.334 2.229 7.31 1 8.928z" fill="url(#aI)" opacity=".487" transform="matrix(-1 0 0 1 1202.143 333.197)"/><path fill="url(#aJ)" d="M199.554 194.597v-5.879l45.352-26.151v5.88z" transform="matrix(-1 0 0 1 1202.143 333.197)"/><path fill="url(#aK)" d="M199.554 187.597v-1.879l45.352-26.151v1.88zm0-3v-1.879l45.352-26.151v1.88zm0-3v-1.879l45.352-26.151v1.88z" transform="matrix(-1 0 0 1 1202.143 333.197)"/><path fill="#00FFC6" d="M958.957 502.636v-15.302l-13.261-7.647v15.302z"/><path fill="#00FFC6" filter="url(#aL)" d="M243.186 169.44v-15.303l13.261-7.646v15.302z" transform="matrix(-1 0 0 1 1202.143 333.197)"/><path fill="#00FFC6" filter="url(#aM)" d="M243.186 169.44v-15.303l13.261-7.646v15.302z" transform="matrix(-1 0 0 1 1202.143 333.197)"/><path fill="#00FFC6" d="M1014.13 534.467v-15.302l-13.261-7.647v15.303z"/><path fill="url(#aN)" opacity=".649" style="mix-blend-mode:lighten" filter="url(#aO)" d="M187 242.306l.778-56.835 13.13-7.471 58 32.925z" transform="matrix(-1 0 0 1 1202.143 333.197)"/><path fill="url(#aN)" opacity=".649" style="mix-blend-mode:lighten" filter="url(#aP)" d="M241 211.306l.778-56.835 13.13-7.471 58 32.925z" transform="matrix(-1 0 0 1 1202.143 333.197)"/><path fill="#00FFC6" filter="url(#aQ)" d="M188.013 201.27v-15.302l13.261-7.646v15.302z" transform="matrix(-1 0 0 1 1202.143 333.197)"/><path fill="#00FFC6" filter="url(#aR)" d="M188.013 201.27v-15.302l13.261-7.646v15.302z" transform="matrix(-1 0 0 1 1202.143 333.197)"/><path d="M170.057 162.248l-3.647 2.2c-1.428.861-3.25-.167-3.25-1.837v-12.372c0-.75.393-1.448 1.037-1.836l3.646-2.2c1.428-.861 3.25.169 3.25 1.837v12.371c0 .752-.392 1.449-1.036 1.837" fill="url(#ax)" transform="matrix(-1 0 0 1 1202.143 333.197)"/><path fill="url(#ak)" d="M43.953 116.167l-26.682-15.399-.001 9.843L0 100.664l.002-19.597 136.875 78.989v19.442l-92.924-53.52z" transform="matrix(-1 0 0 1 1202.143 333.197)"/><path fill="url(#aS)" d="M136.875 156.803l.003-5 51.128 29.061.001 4.627z" transform="matrix(-1 0 0 1 1202.143 333.197)"/><path fill="url(#ak)" d="M0 77.597v-4.658l136.875 78.864.002 4.628z" transform="matrix(-1 0 0 1 1202.143 333.197)"/><path fill="url(#aT)" d="M0 2.597V.939l136.875 78.864.002 1.628z" transform="matrix(-1 0 0 1 1202.143 333.197)"/><path fill="url(#aU)" d="M174.143 126.803l9 25 6.154 14.707 14.846-8.707 39-22-57-16z" transform="matrix(-1 0 0 1 1202.143 333.197)"/><path fill="url(#aV)" d="M250.143 119.803l-44-11.895-12 6.895 57 16 2.348-1.55z" transform="matrix(-1 0 0 1 1202.143 333.197)"/><path fill="url(#aW)" d="M248.143 115.803L210 106l-3 1.895 43.143 11.908z" transform="matrix(-1 0 0 1 1202.143 333.197)"/><path fill="url(#aX)" d="M237.903 138.803L180.76 123l-4.76 2.803 56.922 16z" transform="matrix(-1 0 0 1 1202.143 333.197)"/><path fill="url(#aS)" d="M188.013 201.27v8.32l-6.63-3.823v-8.32z" transform="matrix(-1 0 0 1 1202.143 333.197)"/><path fill="url(#aY)" d="M149.448 150.692v3.012l-6.631-3.824v-3.01z" transform="matrix(-1 0 0 1 1202.143 333.197)"/><path fill="url(#aZ)" transform="scale(1 -1) rotate(-60 206.63 -911.762)" d="M136.6 42.465l.12-1.419 68.382 39.543-1.095.63z"/><g transform="translate(916 92)"><circle fill="url(#o)" cx="116.116" cy="182" r="4"/><circle fill="#00FFB7" filter="url(#ba)" cx="116.116" cy="182" r="4"/><circle fill="url(#o)" style="mix-blend-mode:lighten" filter="url(#bb)" cx="202.907" cy="122" r="2"/><circle fill="url(#o)" style="mix-blend-mode:lighten" filter="url(#bc)" cx="202.907" cy="122" r="2"/><circle fill="url(#o)" style="mix-blend-mode:lighten" filter="url(#bd)" cx="4.907" cy="114" r="4"/><circle fill="url(#o)" style="mix-blend-mode:lighten" filter="url(#be)" cx="4.907" cy="114" r="4"/><circle fill="url(#o)" style="mix-blend-mode:lighten" filter="url(#bf)" cx="102.907" cy="2" r="2"/><circle fill="url(#o)" style="mix-blend-mode:lighten" filter="url(#bg)" cx="102.907" cy="2" r="2"/><circle fill="url(#o)" filter="url(#bh)" cx="151.5" cy="73.5" r="2.5"/><circle fill="url(#o)" filter="url(#bi)" cx="151.5" cy="73.5" r="2.5"/></g><g transform="translate(969 308)" fill="url(#o)"><path d="M139 221c6-1 7-5.79 4-8s.21-5-2-5-6 4.84-6 7.05c0 2.209-2 6.95 4 5.95z" style="mix-blend-mode:lighten" filter="url(#bj)"/><circle style="mix-blend-mode:lighten" filter="url(#bk)" cx="145.5" cy="204.5" r="1.5"/><path d="M139 220c6 0 4-4.79 4-7a4 4 0 10-8 0c0 2.21-2 7 4 7z" style="mix-blend-mode:lighten" filter="url(#bl)"/><circle style="mix-blend-mode:lighten" filter="url(#bm)" cx="145.5" cy="204.5" r="1.5"/><circle style="mix-blend-mode:lighten" filter="url(#bn)" cx="134.5" cy="193.5" r="2.5"/><circle style="mix-blend-mode:lighten" filter="url(#bo)" cx="134.5" cy="193.5" r="2.5"/><circle style="mix-blend-mode:lighten" filter="url(#bp)" cx="253" cy="126" r="2"/><circle style="mix-blend-mode:lighten" filter="url(#bq)" cx="253" cy="126" r="2"/><circle cx="233" cy="4" r="4"/><circle style="mix-blend-mode:lighten" filter="url(#br)" cx="233" cy="4" r="4"/><circle style="mix-blend-mode:lighten" filter="url(#bs)" cx="14.407" cy="40.5" r="3.5"/><circle style="mix-blend-mode:lighten" filter="url(#bt)" cx="14.407" cy="40.5" r="3.5"/><circle style="mix-blend-mode:lighten" filter="url(#bu)" cx="2.407" cy="58.5" r="1.5"/><circle style="mix-blend-mode:lighten" filter="url(#bv)" cx="2.407" cy="58.5" r="1.5"/></g></g></svg>