<svg width="40" height="40" xmlns="http://www.w3.org/2000/svg"><defs><linearGradient x1="50%" y1="0%" x2="50%" y2="100%" id="a"><stop stop-color="#4C74FF" offset="0%"/><stop stop-color="#0085FF" offset="100%"/></linearGradient><linearGradient x1="50%" y1="100%" x2="50%" y2="0%" id="b"><stop stop-color="#00E3AE" offset="0%"/><stop stop-color="#9BE15D" offset="100%"/></linearGradient><filter x="-112.5%" y="-138.5%" width="325%" height="376.9%" filterUnits="objectBoundingBox" id="c"><feGaussianBlur stdDeviation="6" in="SourceGraphic"/></filter></defs><g fill="none" fill-rule="evenodd"><path d="M3.5 8.125v20.75h33V8.125h-33z" stroke="url(#a)" stroke-width="2"/><rect fill="url(#b)" opacity=".3" x="13" y="32" width="14" height="2" rx=".2"/><path d="M12 15h2v10h-2V15zm7-3h2v13h-2V12zm7 7h2v6h-2v-6z" fill="url(#b)"/><path d="M12 15h2v10h-2V15zm7-3h2v13h-2V12zm7 7h2v6h-2v-6z" fill="url(#b)" filter="url(#c)"/></g></svg>