<svg width="40" height="40" xmlns="http://www.w3.org/2000/svg"><defs><linearGradient x1="38.741%" y1="36.559%" x2="71.638%" y2="67.942%" id="a"><stop stop-color="#4C74FF" offset="0%"/><stop stop-color="#0085FF" offset="100%"/></linearGradient><linearGradient x1="50%" y1="100%" x2="50%" y2="0%" id="b"><stop stop-color="#00E3AE" offset="0%"/><stop stop-color="#9BE15D" offset="100%"/></linearGradient><filter x="-36.3%" y="-215.7%" width="172.6%" height="529.8%" filterUnits="objectBoundingBox" id="c"><feGaussianBlur stdDeviation="4" in="SourceGraphic"/></filter></defs><g stroke-width="2" fill="none" fill-rule="evenodd"><path d="M14.612 10.661L27.717 4.6a.6.6 0 01.797.797L22.45 18.5a4 4 0 01-1.95 1.951L7.395 26.514a.6.6 0 01-.797-.797l6.062-13.105a4 4 0 011.951-1.95z" stroke="url(#a)" transform="rotate(45 18.556 17.97)"/><path d="M2 22l13.745 5.362a6 6 0 004.485-.05L33 22" stroke="url(#b)" opacity=".3" stroke-linecap="round" transform="translate(2)"/><path d="M2 27l13.745 5.362a6 6 0 004.485-.05L33 27" stroke="url(#b)" stroke-linecap="round" transform="translate(2)"/><path d="M.5 27l15.469 5.502a6 6 0 004.138-.043L34.5 27" stroke="url(#b)" filter="url(#c)" transform="translate(2)"/></g></svg>