<svg width="78" height="78" xmlns="http://www.w3.org/2000/svg"><defs><linearGradient x1="19.002%" y1="88.472%" x2="88.988%" y2="37.542%" id="a"><stop stop-color="#4C74FF" offset="0%"/><stop stop-color="#0085FF" offset="100%"/></linearGradient><linearGradient x1="6.838%" y1="18.557%" x2="77.556%" y2="100%" id="c"><stop stop-color="#CEEAFE" offset="0%"/><stop stop-color="#A0D0FC" offset="100%"/></linearGradient><linearGradient x1="13.568%" y1="0%" x2="100%" y2="100%" id="d"><stop stop-color="#0063DF" offset="0%"/><stop stop-color="#03B" offset="100%"/></linearGradient><linearGradient x1="100%" y1="50%" x2="0%" y2="82.887%" id="e"><stop stop-color="#00E3AE" offset="0%"/><stop stop-color="#9BE15D" offset="100%"/></linearGradient><filter x="-24.4%" y="-34.2%" width="148.8%" height="168.4%" filterUnits="objectBoundingBox" id="b"><feGaussianBlur stdDeviation="4" in="SourceGraphic"/></filter></defs><g fill="none" fill-rule="evenodd"><path d="M8.425 36.087c0-7.418 6.019-13.437 13.438-13.437.737 0 1.462.063 2.175.175C25.6 17.969 30.15 14.45 35.53 14.45c6.669 0 12.069 5.406 12.069 12.069 0 .544-.038 1.081-.113 1.612 5.644.3 10.132 4.969 10.132 10.688 0 5.837-4.669 10.575-10.475 10.7v.006H21.18v-.019c-7.106-.356-12.756-6.225-12.756-13.419z" fill="url(#a)" transform="translate(7 7)"/><path d="M8.425 44.087c0-7.418 6.019-13.437 13.438-13.437.737 0 1.462.063 2.175.175C25.6 25.969 30.15 22.45 35.53 22.45c6.669 0 12.069 5.406 12.069 12.069 0 .544-.038 1.081-.113 1.612 5.644.3 10.132 4.969 10.132 10.688 0 5.837-4.669 10.575-10.475 10.7v.006H21.18v-.019c-7.106-.356-12.756-6.225-12.756-13.419z" fill="url(#a)" opacity=".5" filter="url(#b)" transform="translate(7 7)"/><path d="M51.5 41.506s-5.731 2.513-12.563 1.575c0 0-1 .2-5.83-1.137-4.832-1.332-18.563-4.644-18.563-4.644s-9.982-3.219-10.207-7.537L51.5 41.505z" fill="url(#c)" transform="translate(7 7)"/><path d="M31.587 35.294l.007-.031 7.95 2.193c4.481-5.994 12.469-8.462 16.112-8.787 3.875-.35 2.15 2.481 2.15 2.481l-6.418 9.569 5.093 1.406 3.463-3.3s2.481-2.15 6.556-1.5c0 0 2.194.606-1.575 5.706 0 0-6.131 6.813-9.206 5.969l-44.35-12.225c.95-3.438 9.812-4.025 20.218-1.481z" fill="#E1E9FF"/><path d="M27.306 33.513l1.588.368c.05.013.094-.019.106-.069l.475-2.043c.012-.05-.019-.094-.069-.106l-1.587-.37c-.05-.012-.094.02-.107.07l-.474 2.043c-.007.05.018.1.068.107zm-2.994-.7l1.588.368c.05.013.094-.018.106-.069l.475-2.043c.013-.05-.019-.094-.069-.107l-1.587-.368c-.05-.013-.094.018-.106.069l-.475 2.043c-.006.05.018.1.069.106zm-2.993-.7l1.587.368c.05.013.094-.019.107-.069l.474-2.043c.013-.05-.018-.094-.068-.107l-1.588-.368c-.05-.013-.093.019-.106.069l-.475 2.043c-.012.05.019.1.069.106zm-2.994-.694l1.588.369c.05.012.093-.02.106-.07l.475-2.043c.012-.05-.019-.094-.069-.106l-1.588-.369c-.05-.012-.093.019-.106.069l-.475 2.044c-.012.043.019.093.069.106zm-2.994-.7l1.588.368c.05.013.093-.018.106-.068l.475-2.044c.012-.05-.019-.094-.069-.106l-1.587-.369c-.05-.012-.094.019-.106.069l-.476 2.044c-.012.043.02.093.07.106z" fill="url(#d)" transform="translate(7 7)"/><path d="M12.281 28.369l-.262.95a.645.645 0 01-.794.45l-5.637-1.556c.906-.613 2.25-1.044 3.93-1.276l2.307.638c.35.094.55.456.456.794z" fill="url(#e)" transform="translate(7 7)"/></g></svg>