<?xml version="1.0" encoding="UTF-8"?>
<svg width="78px" height="78px" viewBox="0 0 78 78" version="1.1" xmlns="http://www.w3.org/2000/svg" xmlns:xlink="http://www.w3.org/1999/xlink">
    <!-- Generator: Sketch 52.1 (67048) - http://www.bohemiancoding.com/sketch -->
    <title>icon_西域马_产品明细_免费版 copy</title>
    <desc>Created with Sketch.</desc>
    <defs>
        <linearGradient x1="19.00249%" y1="88.4721066%" x2="88.9879918%" y2="37.5419842%" id="linearGradient-1">
            <stop stop-color="#4C74FF" offset="0%"></stop>
            <stop stop-color="#0085FF" offset="100%"></stop>
        </linearGradient>
        <filter x="-41.9%" y="-49.8%" width="183.8%" height="199.6%" filterUnits="objectBoundingBox" id="filter-2">
            <feGaussianBlur stdDeviation="4" in="SourceGraphic"></feGaussianBlur>
        </filter>
        <linearGradient x1="100%" y1="50%" x2="0%" y2="82.8866211%" id="linearGradient-3">
            <stop stop-color="#00E3AE" offset="0%"></stop>
            <stop stop-color="#9BE15D" offset="100%"></stop>
        </linearGradient>
        <linearGradient x1="50%" y1="0%" x2="50%" y2="100%" id="linearGradient-4">
            <stop stop-color="#CEEAFE" offset="0%"></stop>
            <stop stop-color="#A0D0FC" offset="100%"></stop>
        </linearGradient>
        <linearGradient x1="50%" y1="0%" x2="50%" y2="100%" id="linearGradient-5">
            <stop stop-color="#0063DF" offset="0%"></stop>
            <stop stop-color="#0033BB" offset="100%"></stop>
        </linearGradient>
    </defs>
    <g id="icon_西域马_产品明细_免费版-copy" stroke="none" stroke-width="1" fill="none" fill-rule="evenodd">
        <g id="icon_西域马_产品明细_免费版" transform="translate(7.000000, 5.000000)">
            <rect id="矩形" fill="#000000" opacity="0" x="0" y="0" width="64" height="64"></rect>
            <polygon id="路径" fill="url(#linearGradient-1)" opacity="0.5" filter="url(#filter-2)" points="46.63125 67.0875 32.0875 62.0875 18 67.0875 18 43 46.63125 43"></polygon>
            <polygon id="路径" fill="url(#linearGradient-3)" points="46.63125 60.0875 32.0875 55.0875 18 60.0875 18 36 46.63125 36"></polygon>
            <path d="M17.6,46.48125 C21.50625,49.7375 26.525,51.70625 32.00625,51.70625 C37.40625,51.70625 42.35625,49.80625 46.23125,46.6375 L46.23125,39.975 L17.6,39.975 L17.6,46.48125 Z" id="路径" fill="#23BB90"></path>
            <path d="M10,26.5 C10,38.9264069 20.0735931,49 32.5,49 C44.9264069,49 55,38.9264069 55,26.5 C55,14.0735931 44.9264069,4 32.5,4 C20.0735931,4 10,14.0735931 10,26.5 Z" id="路径" fill="url(#linearGradient-4)"></path>
            <path d="M14.05,26.475 C14.0499999,32.8901503 17.4724418,38.8179938 23.0281249,42.025569 C28.583808,45.2331442 35.428692,45.2331442 40.9843751,42.025569 C46.5400582,38.8179938 49.9625001,32.8901503 49.9625,26.475 C49.9625,16.558037 41.923213,8.51875 32.00625,8.51875 C22.089287,8.51875 14.05,16.558037 14.05,26.475 Z" id="路径" fill="url(#linearGradient-5)"></path>
            <path d="M16.325,26.475 C16.3249999,32.0773711 19.3138293,37.2541755 24.1656249,40.0553611 C29.0174206,42.8565466 34.9950794,42.8565466 39.8468751,40.0553611 C44.6986707,37.2541755 47.6875001,32.0773711 47.6875,26.475 C47.6875,17.8144848 40.6667652,10.79375 32.00625,10.79375 C23.3457348,10.79375 16.325,17.8144848 16.325,26.475 Z" id="路径" fill="url(#linearGradient-1)"></path>
            <polygon id="路径" fill="#5B79FB" points="32.00625 17.54375 34.90625 23.425 41.4 24.36875 36.7 28.94375 37.8125 35.40625 32.00625 32.35625 26.2 35.40625 27.3125 28.94375 22.6125 24.36875 29.10625 23.425"></polygon>
            <polygon id="路径" fill="#FFFFFF" points="31.55 17.0875 34.45625 22.96875 40.94375 23.9125 36.25 28.4875 37.35625 34.95 31.55 31.9 25.75 34.95 26.85625 28.4875 22.1625 23.9125 28.65 22.96875"></polygon>
        </g>
    </g>
</svg>