<svg width="78" height="78" xmlns="http://www.w3.org/2000/svg"><defs><linearGradient x1="19.002%" y1="88.472%" x2="88.988%" y2="37.542%" id="a"><stop stop-color="#4C74FF" offset="0%"/><stop stop-color="#0085FF" offset="100%"/></linearGradient><linearGradient x1="100%" y1="50%" x2="0%" y2="82.887%" id="c"><stop stop-color="#00E3AE" offset="0%"/><stop stop-color="#9BE15D" offset="100%"/></linearGradient><linearGradient x1="50%" y1="0%" x2="50%" y2="100%" id="d"><stop stop-color="#CEEAFE" offset="0%"/><stop stop-color="#A0D0FC" offset="100%"/></linearGradient><linearGradient x1="50%" y1="0%" x2="50%" y2="100%" id="e"><stop stop-color="#0063DF" offset="0%"/><stop stop-color="#03B" offset="100%"/></linearGradient><filter x="-41.9%" y="-49.8%" width="183.8%" height="199.6%" filterUnits="objectBoundingBox" id="b"><feGaussianBlur stdDeviation="4" in="SourceGraphic"/></filter></defs><g fill="none" fill-rule="evenodd"><path fill="url(#a)" opacity=".5" filter="url(#b)" d="M46.631 67.088l-14.544-5-14.087 5V43h28.631z" transform="translate(7 5)"/><path fill="url(#c)" d="M46.631 60.087l-14.544-5-14.087 5V36h28.631z" transform="translate(7 5)"/><path d="M24.6 51.481a22.424 22.424 0 0014.406 5.225c5.4 0 10.35-1.9 14.225-5.069v-6.662H24.6v6.506z" fill="#23BB90"/><path d="M10 26.5C10 38.926 20.074 49 32.5 49S55 38.926 55 26.5 44.926 4 32.5 4 10 14.074 10 26.5z" fill="url(#d)" transform="translate(7 5)"/><path d="M14.05 26.475a17.956 17.956 0 1035.912 0c0-9.917-8.039-17.956-17.956-17.956S14.05 16.558 14.05 26.475z" fill="url(#e)" transform="translate(7 5)"/><path d="M16.325 26.475a15.681 15.681 0 1031.363 0c0-8.66-7.021-15.681-15.682-15.681-8.66 0-15.681 7.02-15.681 15.681z" fill="url(#a)" transform="translate(7 5)"/><path fill="#5B79FB" d="M39.006 22.544l2.9 5.881 6.494.944-4.7 4.575 1.112 6.462-5.806-3.05-5.806 3.05 1.113-6.462-4.7-4.575 6.493-.944z"/><path fill="#FFF" d="M38.55 22.087l2.906 5.882 6.488.944-4.694 4.575 1.106 6.462-5.806-3.05-5.8 3.05 1.106-6.463-4.693-4.575 6.487-.943z"/></g></svg>