<svg width="78" height="78" xmlns="http://www.w3.org/2000/svg"><defs><linearGradient x1="50%" y1="65.511%" x2="50%" y2="0%" id="a"><stop stop-color="#4C74FF" offset="0%"/><stop stop-color="#0085FF" offset="100%"/></linearGradient><linearGradient x1="50%" y1="82.887%" x2="50%" y2="0%" id="c"><stop stop-color="#00E3AE" offset="0%"/><stop stop-color="#9BE15D" offset="100%"/></linearGradient><linearGradient x1="6.838%" y1="18.557%" x2="78.67%" y2="77.141%" id="d"><stop stop-color="#CEEAFE" offset="0%"/><stop stop-color="#A0D0FC" offset="100%"/></linearGradient><linearGradient x1="50%" y1="0%" x2="17.234%" y2="81.869%" id="e"><stop stop-color="#CEEAFE" offset="0%"/><stop stop-color="#A0D0FC" offset="100%"/></linearGradient><filter x="-32.1%" y="-50.4%" width="164.3%" height="200.9%" filterUnits="objectBoundingBox" id="b"><feGaussianBlur stdDeviation="6" in="SourceGraphic"/></filter></defs><g fill="none" fill-rule="evenodd"><path d="M20.387 39.856l23.988-.106-11.538 29.006-12.45-28.9zm-16.33-6.2L17.75 39.75l14.719 28.787-28.413-34.88zm43.168 6.038l12.831-6.632L33.05 68.376l14.175-28.681z" fill="url(#a)" opacity=".5" filter="url(#b)" transform="translate(7 4)"/><path fill="url(#a)" d="M20.387 26.856l23.988-.106-11.538 29.006z" transform="translate(7 4)"/><path fill="url(#c)" d="M23.137 16.944l18.276.162 3.23 7.063-23.718-.163z" transform="translate(7 4)"/><path fill="url(#d)" d="M18.506 23.794l-14.45-6.038 7.763-5.768 9.275 4.793z" transform="translate(7 4)"/><path d="M4.056 20.656L17.75 26.75l14.719 28.788L4.056 20.656zm43.169 6.038l12.831-6.631L33.05 55.374l14.175-28.681z" fill="url(#a)" transform="translate(7 4)"/><path fill="url(#e)" d="M46.956 23.738L43.344 16.3l8.25-4.588 7.112 5.988z" transform="translate(7 4)"/><path fill="#E1E9FF" d="M29.863 18.587l-3.125-.806-5.875-3.293 6.9-2.476H50.3l6.844 2.857-6.575 3.181-2.213.537z"/></g></svg>