<svg width="88" height="36" xmlns="http://www.w3.org/2000/svg" xmlns:xlink="http://www.w3.org/1999/xlink"><defs><linearGradient x1="-70.613%" y1="199.312%" x2="84.785%" y2="0%" id="c"><stop stop-color="#0384FF" offset="0%"/><stop stop-color="#FFF" offset="100%"/></linearGradient><circle id="a" cx="18" cy="18" r="18"/></defs><g fill="none" fill-rule="evenodd"><mask id="b" fill="#fff"><use xlink:href="#a"/></mask><use fill="#0384FF" fill-rule="nonzero" xlink:href="#a"/><g mask="url(#b)" fill-rule="nonzero"><path d="M17 20.475c-.496-.757-1.1-1.786-1.1-1.95 0-.176.05-.901.15-2.175.069 1.036.103 1.686.103 1.95 0 .195.414.744 1.241 1.646 2.971 1.42 4.611 2.386 4.92 2.9.47.782.616 2.192 1.171 2.505.37.209 1.836-.209 4.396-1.253.222-1.406.222-2.397 0-2.975-.222-.578-1.248-2.614-3.077-6.108v-1.879c0-.522-1.075-2.245-3.224-5.168-.195-2.297-.293-3.706-.293-4.228 0-.522-.928.417-2.784 2.819-5.567.94-9.45 3.393-11.646 7.36-1.964 3.548-3.259 11.006-3.885 22.375h33.436c-12.005-5.312-18.462-8.75-19.37-10.317-.834-1.438-.847-3.272-.039-5.502z" fill="#FFF"/><path d="M0 32.84h16.093c2.142-1.548 4.58-3.577 7.314-6.087 2.048-1.88 3.639-5.326 3.639-11.607 0-4.81-1.635-8.51-4.904-11.096 1.684 2.2 2.394 5.167 2.13 8.9-.398 5.6-2.878 8-4.966 9.882C17.914 24.087 11.479 27.422 0 32.84z" fill="url(#c)" transform="matrix(-1 0 0 1 36.408 3.6)"/><path d="M15.752 32.84h17.684c-.39-7.498-.975-12.97-1.755-16.416-.577-2.554-1.071-3.99-1.754-5.482C27.88 6.47 23.034 4.35 22.142 4.05c0 0 3.27 2.42 4.13 6.109 2.047 8.77-1.316 13.94-3.509 16.759-1.462 1.88-3.799 3.854-7.011 5.923z" fill="url(#c)" transform="matrix(-1 0 0 1 36.408 3.6)"/></g><g fill="#FFF" fill-rule="nonzero"><path d="M69.368 19.437h3.617v.822h-1.4v.896h1.4v8.555h-.82v-7.734h-.58v7.734h-.819v-7.734h-1.398v-.821h1.398v-.896h-1.398v-.822zm-2.9 7.935h-7.153v-.82h7.153v.822zm-18.116-7.115H41v-.82h7.352v.822zm4.181 1.087h-2.575v-.82h2.575v.822zm3.042 4.91h-2.674v-.82h2.674v.822zm1.533-6.138l-.18-.679h1.124v.679zm.999 1.228h-5.063v-.82h5.063v.822z"/><path d="M61.036 20.63v2.98h6.784v6.062H62.6v-.82H67v-4.419h-6.79v-3.81z"/><path d="M59.713 19.437h7.404v3.917h-.818v-3.095h-6.586v-.822zm-11.309 1.779v8.561h-.818v-7.74H41v-.82z"/><path d="M41 29.777v-8.56h.818v7.739h6.586v.821zm12.456-7.869h2.063v2.964h-2.475v-2.964h.412zm.538.785h-.154v1.465h.923v-1.465h-.77z"/><path d="M42.695 27.422h1.66v-7.194h-.817v6.373h-.846v.82zm4.046 0h-1.66v-7.194h.818v6.373h.845v.82zm39.185-.418l2.001 2.153-.599.558-1.984-2.134-2.165 2.134-.573-.584 4.114-4.061v-1.245h-3.506v-.822h1.65v-1.74h-1.65v-.826h1.65v-1h.818v1h1.855v.821h-1.855v1.74h1.855v2.407l-.124.122-1.491 1.472zm-6.605.195l1.673-1.668v-4.266H79.32v-.828h1.673v-1h.818v1h.694v.821h-.7v8.452h-2.483v-.815h1.672v-2.202l-1.09 1.086-.58-.58zm-5.971.885l2.66-2.667v-5.98h.82v5.159l.477-.479.579.58-1.064 1.06v3.953h-.82v-3.132l-2.072 2.084-.58-.581zm-19.31.687l2.66-2.667.82-.821.477-.479.579.581-1.064 1.06-.82.82-2.072 2.084-.58-.58z"/><path d="M55.575 19.437h.853l1.675 10.219-.81.127zm-5.517 9.637l.967-.989v-8.648h.82v7.827l.305-.367.579.581-.892.947-.82.821-.378.406-.58-.58zm23.391-7.957h2.095v.822H73.45v-.822zm0-1.68h2.095v.822H73.45v-.822zm-3.262 4.25v6.062h-.82v-6.062z"/></g><path d="M41.518 7h2.658l.664 2.79.68-2.79h2.704l-1.661 4.227 2.117 5.267h-2.805l-1.035-3.79-1.059 3.79H41l2.14-5.267L41.518 7zm8.344 0h2.56v9.494h-2.56V7zm3.544 0h2.817l.913 3.008L58.034 7h2.855l-2.525 5.145v4.35h-2.502v-4.35L53.406 7zm8.468 0h2.484v6.315c0 .501.078.878.234 1.131.156.253.39.38.701.38.327 0 .571-.116.732-.346.161-.23.242-.575.242-1.035V7h2.5v6.568c0 .993-.306 1.76-.917 2.303-.61.542-1.47.813-2.58.813-1.073 0-1.908-.262-2.503-.786-.595-.524-.893-1.3-.893-2.33V7zm8.37 0h2.732l1.497 3.634L75.97 7h2.74v9.494h-2.44v-3.552c0-.899.04-1.81.122-2.736h-.184c-.107.458-.32 1.089-.637 1.892l-1.098 2.77-1.09-2.77c-.317-.808-.53-1.439-.637-1.892h-.192c.087.857.13 1.77.13 2.736v3.552h-2.44V7zm12.24 0h2.474l2.811 9.494h-2.711l-.376-1.885h-2.037l-.399 1.885h-2.55L82.483 7zm1.158 2.658l-.697 3.323h1.378l-.681-3.323z" fill="#0085FF"/></g></svg>