<?xml version="1.0" encoding="UTF-8"?>
<svg width="88px" height="36px" viewBox="0 0 88 36" version="1.1" xmlns="http://www.w3.org/2000/svg" xmlns:xlink="http://www.w3.org/1999/xlink">
    <!-- Generator: Sketch 52.1 (67048) - http://www.bohemiancoding.com/sketch -->
    <title>驹马科技logo</title>
    <desc>Created with Sketch.</desc>
    <defs>
        <circle id="path-1" cx="18" cy="18" r="18"></circle>
        <linearGradient x1="-70.6126694%" y1="199.311949%" x2="84.7849138%" y2="0%" id="linearGradient-3">
            <stop stop-color="#0384FF" offset="0%"></stop>
            <stop stop-color="#FFFFFF" offset="100%"></stop>
        </linearGradient>
    </defs>
    <g id="驹马科技logo" stroke="none" stroke-width="1" fill="none" fill-rule="evenodd">
        <g id="分组-18">
            <g id="分组-13-copy-7">
                <mask id="mask-2" fill="white">
                    <use xlink:href="#path-1"></use>
                </mask>
                <use id="椭圆形" fill="#0384FF" fill-rule="nonzero" xlink:href="#path-1"></use>
                <g id="分组-12" mask="url(#mask-2)" fill-rule="nonzero">
                    <g transform="translate(19.667282, 20.020408) scale(-1, 1) translate(-19.667282, -20.020408) translate(2.926589, 3.600000)">
                        <path d="M19.4088482,16.8752603 C19.9042107,16.1179321 20.5073492,15.0889919 20.5073492,14.925 C20.5073492,14.7488095 20.4578145,14.0238095 20.3587452,12.75 C20.2893967,13.7857143 20.2547224,14.4357143 20.2547224,14.7 C20.2547224,14.8952357 19.841131,15.4438908 19.0139482,16.3459654 C16.0426307,17.7659942 14.4029548,18.7324608 14.0949204,19.2453651 C13.6246665,20.0283791 13.478144,21.4378042 12.9227401,21.7510098 C12.5524708,21.9598136 11.0872454,21.5422061 8.52706395,20.4981875 C8.30470769,19.092383 8.30470769,18.1005653 8.52706395,17.5227343 C8.74942021,16.9449034 9.77507797,14.9090671 11.6040372,11.4152253 C11.6040372,10.6844122 11.6040372,10.058001 11.6040372,9.53599171 C11.6040372,9.01398239 12.6785359,7.29135163 14.8275331,4.36809943 C15.0228965,2.07125842 15.1205782,0.661833247 15.1205782,0.139823925 C15.1205782,-0.382185396 16.0485542,0.557431383 17.9045064,2.95867426 C23.4723628,3.89829104 27.3543989,6.35173485 29.5506146,10.3190057 C31.514674,13.8669065 32.8097675,21.3251971 33.4358954,32.6938776 L-1.59161573e-12,32.6938776 C12.0049559,27.3822678 18.4615331,23.943449 19.3697317,22.377421 C20.2036529,20.9394713 20.2166917,19.1054178 19.4088482,16.8752603 Z" id="合并形状" fill="#FFFFFF"></path>
                        <path d="M0,32.8408163 L16.0929801,32.8408163 C18.2348892,31.2920816 20.6729713,29.2628571 23.4072265,26.7531429 C25.4546169,24.8738872 27.0459243,21.4269662 27.0459243,15.1457143 C27.0459243,10.3354286 25.4112805,6.63685714 22.1419929,4.05 C23.8261714,6.25 24.5358999,9.21657143 24.2711784,12.9497143 C23.8740962,18.5494286 21.3938446,20.9494286 19.3058437,22.8317143 C17.9138431,24.0865714 11.4785619,27.4229388 0,32.8408163 Z" id="路径-8-copy-2" fill="url(#linearGradient-3)"></path>
                        <path d="M15.7520218,32.8408163 L33.4358954,32.8408163 C33.0460258,25.3419664 32.4612213,19.8696133 31.6814821,16.4237569 C31.1035243,13.8696216 30.6097909,12.4330571 29.9270688,10.9417127 C27.8802534,6.47063013 23.0336168,4.35 22.1419929,4.05 C22.1419929,4.05 25.4114454,6.47063013 26.2720412,10.1585635 C28.3188567,18.9298343 24.9562313,24.0986188 22.7632147,26.9179558 C21.3012036,28.7975138 18.9641393,30.7718007 15.7520218,32.8408163 Z" id="路径-8-copy-3" fill="url(#linearGradient-3)"></path>
                    </g>
                </g>
            </g>
            <g id="分组" transform="translate(41.000000, 7.000000)">
                <g id="分组-2">
                    <g id="分组-14-copy-5" transform="translate(0.000000, 12.105263)" fill="#FFFFFF" fill-rule="nonzero">
                        <polygon id="路径" points="28.3677298 0.332139873 31.9846781 0.332139873 31.9846781 1.15351716 30.5859423 1.15351716 30.5859423 2.04956511 31.9846781 2.04956511 31.9846781 10.6046896 31.1652014 10.6046896 31.1652014 2.8709424 30.5859423 2.8709424 30.5859423 10.6046896 29.7664656 10.6046896 29.7664656 2.8709424 28.3677298 2.8709424 28.3677298 2.04956511 29.7664656 2.04956511 29.7664656 1.15351716 28.3677298 1.15351716 28.3677298 0.332139873"></polygon>
                        <polygon id="路径" points="25.4679217 8.26692345 18.3146045 8.26692345 18.3146045 7.44707006 25.4679217 7.44707006 25.4679217 8.26844734"></polygon>
                        <polygon id="路径-copy-4" points="7.35238898 1.15199327 0 1.15199327 0 0.332139873 7.35238898 0.332139873 7.35238898 1.15351716"></polygon>
                        <polygon id="路径-copy-8" points="11.5328965 2.23899649 8.95823047 2.23899649 8.95823047 1.4191431 11.5328965 1.4191431 11.5328965 2.24052038"></polygon>
                        <polygon id="路径-copy-13" points="14.5751674 7.14909074 11.9009654 7.14909074 11.9009654 6.32923735 14.5751674 6.32923735 14.5751674 7.15061463"></polygon>
                        <polygon id="路径-copy-15" transform="translate(16.489762, 0.671419) rotate(-270.000000) translate(-16.489762, -0.671419) " points="16.8290405 1.05347487 16.1504827 1.23334835 16.1504827 0.109489161 16.8290405 0.109489161"></polygon>
                        <polygon id="路径-copy-10" points="17.1069066 2.23899649 12.0438432 2.23899649 12.0438432 1.4191431 17.1069066 1.4191431 17.1069066 2.24052038"></polygon>
                        <polygon id="路径" points="20.0359857 1.52405713 20.0359857 4.50478807 26.8198543 4.50478807 26.8198543 10.5668267 21.6004413 10.5668267 21.6004413 9.74697335 26.0003775 9.74697335 26.0003775 5.32768925 19.2104276 5.32768925 19.2104276 1.51796157"></polygon>
                        <polygon id="路径" points="18.7127481 0.332139873 26.1169255 0.332139873 26.1169255 4.24853992 25.2989692 4.24853992 25.2989692 1.15351716 18.7127481 1.15351716 18.7127481 0.332139873"></polygon>
                        <polygon id="路径-copy-6" points="7.40417741 2.11087242 7.40417741 10.6717408 6.58622106 10.6717408 6.58622106 2.93224971 0 2.93224971 0 2.11087242"></polygon>
                        <polygon id="路径-copy-6" transform="translate(3.702089, 6.391307) scale(-1, -1) translate(-3.702089, -6.391307) " points="7.40417741 2.11087242 7.40417741 10.6717408 6.58622106 10.6717408 6.58622106 2.93224971 0 2.93224971 0 2.11087242"></polygon>
                        <path d="M12.4561095,2.80260174 L14.5189734,2.80260174 L14.5189734,5.76715599 L12.0438432,5.76715599 L12.0438432,2.80260174 L12.4561095,2.80260174 Z M12.9938264,3.58733669 L12.8401303,3.58733669 L12.8401303,5.05308338 L13.762878,5.05308338 L13.762878,3.58733669 L12.9938264,3.58733669 Z" id="合并形状"></path>
                        <polygon id="路径-copy-5" transform="translate(2.523826, 4.719657) scale(1, -1) translate(-2.523826, -4.719657) " points="1.69515093 1.12268767 3.35554152 1.12268767 3.35554152 8.31662575 2.53758516 8.31662575 2.53758516 1.94406496 1.6921102 1.94406496 1.6921102 1.12268767"></polygon>
                        <polygon id="路径-copy-5" transform="translate(4.912687, 4.719657) scale(-1, -1) translate(-4.912687, -4.719657) " points="4.08401239 1.12268767 5.74440298 1.12268767 5.74440298 8.31662575 4.92644662 8.31662575 4.92644662 1.94406496 4.08097166 1.94406496 4.08097166 1.12268767"></polygon>
                        <polygon id="路径" points="44.9264809 7.89825904 46.9272812 10.0515171 46.3282574 10.6092612 44.3441811 8.47581375 42.1791813 10.6092612 41.6060038 10.025611 45.7201114 5.96444127 45.7201114 4.71942226 42.2141497 4.71942226 42.2141497 3.89804498 43.8637457 3.89804498 43.8637457 2.15776138 42.2141497 2.15776138 42.2141497 1.33181242 43.8637457 1.33181242 43.8637457 0.332139873 44.6817021 0.332139873 44.6817021 1.33181242 46.5365474 1.33181242 46.5365474 2.1531897 44.6817021 2.1531897 44.6817021 3.8934733 46.5365474 3.8934733 46.5365474 6.2996973 46.4133978 6.42160859 44.9219198 7.89368736"></polygon>
                        <polygon id="路径" points="38.3213192 8.09331709 39.9937207 6.42618026 39.9937207 2.15928527 38.3213192 2.15928527 38.3213192 1.33181242 39.9937207 1.33181242 39.9937207 0.332139873 40.8116771 0.332139873 40.8116771 1.33181242 41.5064839 1.33181242 41.5064839 2.1531897 40.8055956 2.1531897 40.8055956 10.6046896 38.3228396 10.6046896 38.3228396 9.78940785 39.9952411 9.78940785 39.9952411 7.58738526 38.9051394 8.67391959 38.3258803 8.09331709"></polygon>
                        <polygon id="路径" points="32.3491656 8.9786978 35.0098043 6.31188843 35.0098043 0.332139873 35.829281 0.332139873 35.829281 5.49051114 36.3066756 5.01200935 36.8859347 5.59261185 35.8216792 6.65171614 35.8216792 10.6046896 35.0022025 10.6046896 35.0022025 7.47309343 32.929945 9.55625252 32.350686 8.97565002"></polygon>
                        <polygon id="路径-copy-17" points="13.0392021 9.66585545 15.6998408 6.99904608 16.5193176 6.17766879 16.9967122 5.699167 17.5759712 6.2797695 16.5117157 7.33887379 15.692239 8.16025108 13.6199816 10.2434102 13.0407225 9.66280767"></polygon>
                        <polygon id="路径-copy-12" transform="translate(15.838945, 5.441394) rotate(-9.000000) translate(-15.838945, -5.441394) " points="15.38999 0.19734492 16.2323857 0.330767284 16.2878996 10.6854435 15.4685675 10.6845309"></polygon>
                        <polygon id="路径-copy-9" points="9.05776637 9.969227 10.0252706 8.97998725 10.0252706 0.332139873 10.8447473 0.332139873 10.8447473 8.15860996 11.1495405 7.79217277 11.7287996 8.37277527 10.8371455 9.31981496 10.0176688 10.1411922 9.63854579 10.5467817 9.05928673 9.96617922"></polygon>
                        <polygon id="路径" points="32.4487015 2.01205394 34.5437644 2.01205394 34.5437644 2.83343123 32.4502219 2.83343123 32.4502219 2.01205394"></polygon>
                        <polygon id="路径" points="32.4487015 0.332139873 34.5437644 0.332139873 34.5437644 1.15351716 32.4502219 1.15351716 32.4502219 0.332139873"></polygon>
                        <polygon id="路径" points="29.1872066 4.58133429 29.1872066 10.643373 28.3677298 10.643373 28.3677298 4.58133429"></polygon>
                    </g>
                    <path d="M0.517665996,0 L3.1755332,0 L3.84,2.79044649 L4.51991952,0 L7.22414487,0 L5.56297787,4.22650554 L7.68,9.49432405 L4.87533199,9.49432405 L3.84,5.70340039 L2.78148893,9.49432405 L0,9.49432405 L2.14020121,4.22650554 L0.517665996,0 Z M8.86153846,0 L11.4215385,0 L11.4215385,9.49432405 L8.86153846,9.49432405 L8.86153846,0 Z M12.4061538,0 L15.2228607,0 L16.1361799,3.00823744 L17.0341491,0 L19.8892308,0 L17.364172,5.1453111 L17.364172,9.49432405 L14.8621381,9.49432405 L14.8621381,5.1453111 L12.4061538,0 Z M20.8738462,0 L23.3578369,0 L23.3578369,6.31489804 C23.3578369,6.81608293 23.4357803,7.193105 23.5916694,7.44597556 C23.7475585,7.69884612 23.9813886,7.8252795 24.2931668,7.8252795 C24.6202783,7.8252795 24.8643305,7.71023651 25.0253307,7.48014709 C25.1863309,7.25005766 25.2668298,6.9049287 25.2668298,6.44474984 L25.2668298,0 L27.7661538,0 L27.7661538,6.56776734 C27.7661538,7.56102466 27.4607691,8.32873728 26.8499906,8.8709282 C26.239212,9.41311913 25.3792794,9.68421053 24.2701669,9.68421053 C23.1968321,9.68421053 22.3624547,9.42223145 21.7670095,8.89826542 C21.1715643,8.3742994 20.8738462,7.59747447 20.8738462,6.56776734 L20.8738462,0 Z M29.2430769,0 L31.9760764,0 L33.4730846,3.63438641 L34.9700928,0 L37.7107692,0 L37.7107692,9.49432405 L35.2694944,9.49432405 L35.2694944,5.94160924 C35.2694944,5.0432171 35.3104378,4.13122663 35.3923258,3.20561048 L35.2080787,3.20561048 C35.1006006,3.66388122 34.8882067,4.2945612 34.5708906,5.09766933 L33.4730846,7.86769792 L32.3829556,5.09766933 C32.0656394,4.29002386 31.8532455,3.65934389 31.7457675,3.20561048 L31.5538434,3.20561048 C31.6408494,4.06316662 31.6843518,4.97515709 31.6843518,5.94160924 L31.6843518,9.49432405 L29.2430769,9.49432405 L29.2430769,0 Z M41.4836958,0 L43.957939,0 L46.7692308,9.49432405 L44.0575215,9.49432405 L43.6821719,7.60907117 L41.6445599,7.60907117 L41.2462297,9.49432405 L38.6953846,9.49432405 L41.4836958,0 Z M42.6416783,2.65841073 L41.9446154,5.98142415 L43.3230769,5.98142415 L42.6416783,2.65841073 Z" id="xiyuma-copy-6" fill="#0085FF"></path>
                </g>
            </g>
        </g>
    </g>
</svg>