<svg width="40" height="40" xmlns="http://www.w3.org/2000/svg"><g fill="none" fill-rule="evenodd" opacity=".5"><path d="M4.24 20.375a36.313 36.313 0 004.554 4.943c3.792 3.406 7.77 5.432 11.706 5.432s7.914-2.026 11.706-5.432a36.316 36.316 0 004.555-4.943 36.316 36.316 0 00-4.554-4.943C28.413 12.026 24.435 10 20.5 10c-3.936 0-7.914 2.026-11.706 5.432a36.313 36.313 0 00-4.555 4.943z" stroke="#0085FF" stroke-width="2"/><path d="M17.873 25.132h0a5.375 5.375 0 105.006-9.513 5.375 5.375 0 00-5.006 9.513z" stroke="#0085FF" stroke-width="2"/><circle fill="#0085FF" fill-rule="nonzero" opacity=".3" cx="20.5" cy="20.5" r="2.5"/></g></svg>