<?xml version="1.0" encoding="UTF-8"?>
<svg width="40px" height="40px" viewBox="0 0 40 40" version="1.1" xmlns="http://www.w3.org/2000/svg" xmlns:xlink="http://www.w3.org/1999/xlink">
    <!-- Generator: Sketch 52.1 (67048) - http://www.bohemiancoding.com/sketch -->
    <title>icon_顶部下拉_ 洞明_h</title>
    <desc>Created with Sketch.</desc>
    <defs>
        <linearGradient x1="50%" y1="0%" x2="50%" y2="100%" id="linearGradient-1">
            <stop stop-color="#4C74FF" offset="0%"></stop>
            <stop stop-color="#0085FF" offset="100%"></stop>
        </linearGradient>
        <linearGradient x1="50%" y1="100%" x2="50%" y2="0%" id="linearGradient-2">
            <stop stop-color="#00E3AE" offset="0%"></stop>
            <stop stop-color="#9BE15D" offset="100%"></stop>
        </linearGradient>
        <filter x="-107.5%" y="-107.5%" width="314.9%" height="314.9%" filterUnits="objectBoundingBox" id="filter-3">
            <feGaussianBlur stdDeviation="6" in="SourceGraphic"></feGaussianBlur>
        </filter>
    </defs>
    <g id="icon_顶部下拉_ 洞明_h" stroke="none" stroke-width="1" fill="none" fill-rule="evenodd">
        <g>
            <rect id="矩形" fill="#000000" opacity="0" x="0" y="0" width="40" height="40"></rect>
            <path d="M4.23934125,20.375 C4.50219529,20.7219844 4.8046823,21.1042256 5.14453678,21.5134986 C6.22206402,22.8111211 7.44709646,24.1092679 8.79366922,25.3184573 C12.5860498,28.7239223 16.5638622,30.75 20.5,30.75 C24.4359658,30.75 28.4137476,28.7239203 32.20619,25.3184522 C33.5527863,24.1092603 34.7778524,22.8111109 35.8554191,21.5134856 C36.1952809,21.1042179 36.4977762,20.7219812 36.7606391,20.375 C36.4977762,20.0280188 36.1952809,19.6457821 35.8554191,19.2365144 C34.7778524,17.9388891 33.5527863,16.6407397 32.20619,15.4315478 C28.4137476,12.0260797 24.4359658,10 20.5,10 C16.5638622,10 12.5860498,12.0260777 8.79366922,15.4315427 C7.44709646,16.6407321 6.22206402,17.9388789 5.14453678,19.2365014 C4.8046823,19.6457744 4.50219529,20.0280156 4.23934125,20.375 Z" id="路径" stroke="url(#linearGradient-1)" stroke-width="2"></path>
            <path d="M17.8731882,25.1321438 L17.8733501,25.1322289 C19.572854,26.0263637 21.6202803,25.9458294 23.2443038,24.9209654 C24.8683316,23.8960987 25.8221954,22.082618 25.7465427,20.163717 C25.6708899,18.2448165 24.5772162,16.5120629 22.8773828,15.6181517 C21.1778789,14.7240169 19.1304526,14.8045512 17.5064291,15.8294153 C15.8824013,16.854282 14.9285375,18.6677626 15.0041902,20.5866636 C15.0798429,22.5055642 16.1735167,24.2383178 17.8731882,25.1321438 Z" id="路径" stroke="url(#linearGradient-2)" stroke-width="2"></path>
            <path d="M16.9422249,26.9021408 L16.9423868,26.902226 C19.2742306,28.1290525 22.0834491,28.0185528 24.3117284,26.612355 C26.5400141,25.2061531 27.8487858,22.7179072 27.7449846,20.0850155 C27.6411835,17.4521245 26.1405823,15.074643 23.8083461,13.8481547 C21.4765023,12.6213282 18.6672838,12.7318279 16.4390045,14.1380257 C14.2107188,15.5442275 12.9019471,18.0324735 13.0057483,20.6653652 C13.1095494,23.2982562 14.6101505,25.6757377 16.9422249,26.9021408 Z" id="路径" stroke="url(#linearGradient-2)" stroke-width="2" filter="url(#filter-3)"></path>
            <circle id="椭圆形" fill="url(#linearGradient-2)" fill-rule="nonzero" opacity="0.3" cx="20.5" cy="20.5" r="2.5"></circle>
        </g>
    </g>
</svg>