<svg width="40" height="40" xmlns="http://www.w3.org/2000/svg"><defs><linearGradient x1="50%" y1="0%" x2="50%" y2="100%" id="a"><stop stop-color="#4C74FF" offset="0%"/><stop stop-color="#0085FF" offset="100%"/></linearGradient><linearGradient x1="50%" y1="100%" x2="50%" y2="0%" id="b"><stop stop-color="#00E3AE" offset="0%"/><stop stop-color="#9BE15D" offset="100%"/></linearGradient><filter x="-107.5%" y="-107.5%" width="314.9%" height="314.9%" filterUnits="objectBoundingBox" id="c"><feGaussianBlur stdDeviation="6" in="SourceGraphic"/></filter></defs><g fill="none" fill-rule="evenodd"><path d="M4.24 20.375a36.313 36.313 0 004.554 4.943c3.792 3.406 7.77 5.432 11.706 5.432s7.914-2.026 11.706-5.432a36.316 36.316 0 004.555-4.943 36.316 36.316 0 00-4.554-4.943C28.413 12.026 24.435 10 20.5 10c-3.936 0-7.914 2.026-11.706 5.432a36.313 36.313 0 00-4.555 4.943z" stroke="url(#a)" stroke-width="2"/><path d="M17.873 25.132h0a5.375 5.375 0 105.006-9.513 5.375 5.375 0 00-5.006 9.513z" stroke="url(#b)" stroke-width="2"/><path d="M16.942 26.902h0A7.375 7.375 0 1023.81 13.85a7.375 7.375 0 00-6.868 13.052z" stroke="url(#b)" stroke-width="2" filter="url(#c)"/><circle fill="url(#b)" fill-rule="nonzero" opacity=".3" cx="20.5" cy="20.5" r="2.5"/></g></svg>